#N canvas 839 537 833 544 12;
#X obj 127 153 osc~ 440;
#X obj 128 309 dac~;
#X floatatom 248 138 5 0 0 0 - - - 0;
#X obj 248 210 *~ 0.75;
#X obj 248 107 * 2;
#X obj 248 172 osc~;
#X floatatom 120 68 5 0 0 0 - - - 0;
#X floatatom 341 137 5 0 0 0 - - - 0;
#X obj 341 171 osc~;
#X floatatom 434 135 5 0 0 0 - - - 0;
#X obj 434 169 osc~;
#X obj 341 101 * 3;
#X obj 434 91 * 4;
#X obj 341 209 *~ 0.5;
#X obj 434 207 *~ 0.25;
#X obj 127 264 *~ 0.1;
#X connect 0 0 15 0;
#X connect 2 0 5 0;
#X connect 3 0 15 0;
#X connect 4 0 2 0;
#X connect 5 0 3 0;
#X connect 6 0 0 0;
#X connect 6 0 4 0;
#X connect 6 0 11 0;
#X connect 6 0 12 0;
#X connect 7 0 8 0;
#X connect 8 0 13 0;
#X connect 9 0 10 0;
#X connect 10 0 14 0;
#X connect 11 0 7 0;
#X connect 12 0 9 0;
#X connect 13 0 15 0;
#X connect 14 0 15 0;
#X connect 15 0 1 0;
#X connect 15 0 1 1;
