#N canvas 1273 0 1278 1340 10;
#X obj 178 57 bng 16 250 50 0 empty empty empty 0 -8 0 10 #fcfcfc #000000 #000000;
#X obj 204 150 noise~;
#X obj 140 179 *~;
#X obj 269 225 *~;
#X obj 212 437 dac~;
#X obj 177 100 vline~;
#X msg 178 76 1 0 \, 0 11 0 \, 1 0 11 \, 0 12 11 \, 1 0 23 \, 0 8 23 \, 1 0 31 \, 0 50 31, f 62;
#X obj 177 122 pow~ 3;
#X obj 142 214 *~ 0.7;
#X obj 149 291 lop~ 3000;
#X obj 151 320 hip~ 600;
#X obj 170 251 bp~ 1000 5;
#X obj 228 374 *~ 0.5;
#X obj 268 303 *~ 0.4;
#X obj 273 264 bp~ 2200 3;
#X obj 281 137 vline~;
#X obj 281 159 pow~ 1.8;
#X msg 281 115 1 36 \, 0 440 36;
#X connect 0 0 6 0;
#X connect 0 0 17 0;
#X connect 1 0 2 1;
#X connect 1 0 3 1;
#X connect 2 0 8 0;
#X connect 3 0 14 0;
#X connect 5 0 7 0;
#X connect 6 0 5 0;
#X connect 7 0 2 0;
#X connect 8 0 11 0;
#X connect 8 0 9 0;
#X connect 9 0 10 0;
#X connect 10 0 12 0;
#X connect 11 0 9 0;
#X connect 12 0 4 0;
#X connect 12 0 4 1;
#X connect 13 0 12 0;
#X connect 14 0 13 0;
#X connect 15 0 16 0;
#X connect 16 0 3 0;
#X connect 17 0 15 0;
