#N canvas 0 0 600 400 10;
#X obj 50 50 inlet~;
#X obj 50 100 delwrite~ myDelay 1000;
#X obj 200 50 hslider 0 1000 500 0 0 empty empty empty -2 -6 0 10 -262144 -1 -1 1 0;
#X obj 200 100 / 1000;
#X obj 200 150 * 1000;
#X obj 200 200 line~;
#X obj 50 150 delread~ myDelay;
#X obj 50 200 +~;
#X obj 50 300 outlet~;
#X connect 0 0 1 0;
#X connect 0 0 6 1;
#X connect 2 0 3 0;
#X connect 3 0 4 0;
#X connect 4 0 5 0;
#X connect 5 0 6 1;
#X connect 6 0 7 0;
