#N canvas 414 184 1366 677 12;
#X obj 11 113 oscparse;
#X msg 12 17 listen 212;
#X obj 12 63 netreceive -u -b;
#X obj 19 555 dac~;
#X obj 12 484 *~ 0.1;
#X obj 10 153 list trim;
#X obj 5 380 * 1000;
#X obj 80 411 print;
#X obj 10 290 route slider1;
#X obj 11 431 osc~;
#X obj 64 436 hsl 162 19 0 1000 0 0 empty empty empty -2 -10 0 12 #fcfcfc #000000 #000000 0 1;
#X obj 28 236 print;
#X msg 404 301 1 \, 0 100;
#X obj 404 334 line~;
#X obj 407 366 pow~ 4;
#X obj 405 430 *~ 4;
#X obj 406 398 *~;
#X obj 405 478 dac~;
#X obj 519 367 hip~ 8000;
#X obj 519 338 hip~ 8000;
#X obj 518 312 hip~ 8000;
#X obj 578 273 /~ 4;
#X obj 580 235 noise~;
#X obj 513 249 +~;
#X obj 572 165 *~ 2;
#X obj 574 133 phasor~ 800;
#X obj 512 213 -~ 1;
#X obj 512 179 *~ 2;
#X obj 483 134 phasor~ 350;
#X obj 571 195 -~ 1;
#X obj 282 204 route toggle1;
#X obj 299 233 tgl 19 0 empty empty empty 0 -10 0 12 #fcfcfc #000000 #000000 0 1;
#X obj 345 250 metro 500;
#X obj 345 274 bng 19 250 50 0 empty empty empty 0 -10 0 12 #fcfcfc #000000 #000000;
#X connect 0 0 5 0;
#X connect 1 0 2 0;
#X connect 2 0 0 0;
#X connect 4 0 3 0;
#X connect 4 0 3 1;
#X connect 5 0 8 0;
#X connect 5 0 11 0;
#X connect 5 0 30 0;
#X connect 6 0 7 0;
#X connect 6 0 9 0;
#X connect 6 0 10 0;
#X connect 8 0 6 0;
#X connect 9 0 4 0;
#X connect 12 0 13 0;
#X connect 13 0 14 0;
#X connect 14 0 16 0;
#X connect 15 0 17 0;
#X connect 16 0 15 0;
#X connect 18 0 16 1;
#X connect 19 0 18 0;
#X connect 20 0 19 0;
#X connect 21 0 20 0;
#X connect 22 0 21 0;
#X connect 23 0 20 0;
#X connect 24 0 29 0;
#X connect 25 0 24 0;
#X connect 26 0 23 0;
#X connect 27 0 26 0;
#X connect 28 0 27 0;
#X connect 29 0 23 1;
#X connect 30 0 31 0;
#X connect 31 0 32 0;
#X connect 32 0 33 0;
#X connect 33 0 12 0;
