#N canvas 204 103 1920 989 12;
#X obj 11 113 oscparse;
#X msg 12 17 listen 212;
#X obj 12 63 netreceive -u -b;
#X obj 23 533 *~ 0.1;
#X obj 10 153 list trim;
#X obj 16 429 * 1000;
#X obj 15 394 route slider1;
#X obj 22 480 osc~;
#X obj 75 485 hsl 162 19 0 1000 0 0 empty empty empty -2 -10 0 12 #fcfcfc #000000 #000000 0 1;
#X msg 1121 302 1 \, 0 100;
#X obj 1121 335 line~;
#X obj 1124 367 pow~ 4;
#X obj 1122 431 *~ 4;
#X obj 1123 399 *~;
#X obj 1223 360 hip~ 8000;
#X obj 1223 331 hip~ 8000;
#X obj 1222 305 hip~ 8000;
#X obj 1282 266 /~ 4;
#X obj 1284 228 noise~;
#X obj 1217 242 +~;
#X obj 1276 158 *~ 2;
#X obj 1278 126 phasor~ 800;
#X obj 1216 206 -~ 1;
#X obj 1216 172 *~ 2;
#X obj 1187 127 phasor~ 350;
#X obj 1275 188 -~ 1;
#X obj 1057 170 route toggle1;
#X obj 1074 199 tgl 19 0 empty empty empty 0 -10 0 12 #fcfcfc #000000 #000000 0 1;
#X obj 1090 234 metro 500;
#X obj 1090 258 bng 19 250 50 0 empty empty empty 0 -10 0 12 #fcfcfc #000000 #000000;
#X obj 291 492 osc~ 440;
#X floatatom 358 474 5 0 0 0 - - - 0;
#X obj 358 546 *~ 0.75;
#X obj 358 443 * 2;
#X obj 358 508 osc~;
#X floatatom 284 407 5 0 0 0 - - - 0;
#X floatatom 418 478 5 0 0 0 - - - 0;
#X obj 418 512 osc~;
#X floatatom 475 484 5 0 0 0 - - - 0;
#X obj 475 518 osc~;
#X obj 418 442 * 3;
#X obj 475 440 * 4;
#X obj 418 550 *~ 0.5;
#X obj 475 556 *~ 0.25;
#X obj 291 603 *~ 0.1;
#X obj 263 332 route slider2;
#X obj 265 367 * 1000;
#X obj 608 456 route slider3;
#X obj 616 616 dac~;
#X obj 615 552 *~;
#X obj 1120 473 throw~ \$0-output;
#X obj 644 495 catch~ \$0-output;
#X obj 22 592 throw~ \$0-output;
#X obj 295 652 throw~ \$0-output;
#X text 594 427 VOLUMEN;
#X text 273 308 X;
#X text 60 372 X;
#X text 1070 140 SNARE;
#X text 842 431 REVERB;
#X obj 856 460 route slider4;
#X obj 8 224 send signal;
#X obj 803 405 receive signal;
#X obj 550 398 receive signal;
#X obj 1031 110 receive signal;
#X obj 39 194 print;
#X obj 240 273 receive signal;
#X obj 14 338 receive signal;
#X obj 850 553 * 1000;
#X obj 856 604 osc~;
#X obj 909 609 hsl 162 19 0 1000 0 0 empty empty empty -2 -10 0 12 #fcfcfc #000000 #000000 0 1;
#X obj 856 658 *~ 0.1;
#X msg 1523 347 1 \, 0 100;
#X obj 1523 380 line~;
#X obj 1526 412 pow~ 4;
#X obj 1537 460 *~;
#X obj 1520 199 tgl 19 0 empty empty empty 0 -10 0 12 #fcfcfc #000000 #000000 0 1;
#X obj 1530 233 metro 500;
#X obj 1532 261 bng 19 250 50 0 empty empty empty 0 -10 0 12 #fcfcfc #000000 #000000;
#X obj 1540 545 throw~ \$0-output;
#X obj 1482 106 receive signal;
#X text 1516 140 DRUM;
#X obj 1503 170 route toggle2;
#X obj 1556 293 t b b;
#X obj 1673 429 *~;
#X obj 1666 394 pow~ 4;
#X obj 1660 357 line~;
#X obj 1744 393 bp~ 5000 2;
#X obj 1746 360 hip~ 3000;
#X obj 1745 321 noise~;
#X msg 1655 327 1 \, 0 200;
#X obj 1539 498 +~;
#X obj 1589 415 osc~ 200;
#X connect 0 0 4 0;
#X connect 1 0 2 0;
#X connect 2 0 0 0;
#X connect 3 0 52 0;
#X connect 4 0 60 0;
#X connect 4 0 64 0;
#X connect 5 0 7 0;
#X connect 5 0 8 0;
#X connect 6 0 5 0;
#X connect 7 0 3 0;
#X connect 9 0 10 0;
#X connect 10 0 11 0;
#X connect 11 0 13 0;
#X connect 12 0 50 0;
#X connect 13 0 12 0;
#X connect 14 0 13 1;
#X connect 15 0 14 0;
#X connect 16 0 15 0;
#X connect 17 0 16 0;
#X connect 18 0 17 0;
#X connect 19 0 16 0;
#X connect 20 0 25 0;
#X connect 21 0 20 0;
#X connect 22 0 19 0;
#X connect 23 0 22 0;
#X connect 24 0 23 0;
#X connect 25 0 19 1;
#X connect 26 0 27 0;
#X connect 27 0 28 0;
#X connect 28 0 29 0;
#X connect 29 0 9 0;
#X connect 30 0 44 0;
#X connect 31 0 34 0;
#X connect 32 0 44 0;
#X connect 33 0 31 0;
#X connect 34 0 32 0;
#X connect 35 0 30 0;
#X connect 35 0 33 0;
#X connect 35 0 40 0;
#X connect 35 0 41 0;
#X connect 36 0 37 0;
#X connect 37 0 42 0;
#X connect 38 0 39 0;
#X connect 39 0 43 0;
#X connect 40 0 36 0;
#X connect 41 0 38 0;
#X connect 42 0 44 0;
#X connect 43 0 44 0;
#X connect 44 0 53 0;
#X connect 45 0 46 0;
#X connect 46 0 35 0;
#X connect 47 0 49 0;
#X connect 49 0 48 0;
#X connect 49 0 48 1;
#X connect 51 0 49 1;
#X connect 59 0 67 0;
#X connect 61 0 59 0;
#X connect 62 0 47 0;
#X connect 63 0 26 0;
#X connect 65 0 45 0;
#X connect 66 0 6 0;
#X connect 67 0 68 0;
#X connect 67 0 69 0;
#X connect 68 0 70 0;
#X connect 71 0 72 0;
#X connect 72 0 73 0;
#X connect 73 0 74 0;
#X connect 74 0 90 0;
#X connect 75 0 76 0;
#X connect 76 0 77 0;
#X connect 77 0 82 0;
#X connect 79 0 81 0;
#X connect 81 0 75 0;
#X connect 82 0 71 0;
#X connect 82 1 89 0;
#X connect 83 0 90 1;
#X connect 84 0 83 0;
#X connect 85 0 84 0;
#X connect 86 0 83 1;
#X connect 87 0 86 0;
#X connect 88 0 87 0;
#X connect 89 0 85 0;
#X connect 90 0 78 0;
#X connect 91 0 74 1;
