#N canvas 382 49 1920 989 12;
#X obj 11 113 oscparse;
#X msg 12 17 listen 212;
#X obj 12 63 netreceive -u -b;
#X obj 10 153 list trim;
#X obj 385 397 hsl 162 19 0 1 0 0 empty empty empty -2 -10 0 12 #fcfcfc #000000 #000000 0 1;
#X msg 1127 231 1 \, 0 100;
#X obj 1127 264 line~;
#X obj 1130 296 pow~ 4;
#X obj 1128 360 *~ 4;
#X obj 1129 328 *~;
#X obj 1229 289 hip~ 8000;
#X obj 1229 260 hip~ 8000;
#X obj 1228 234 hip~ 8000;
#X obj 1288 195 /~ 4;
#X obj 1290 157 noise~;
#X obj 1223 171 +~;
#X obj 1282 87 *~ 2;
#X obj 1284 55 phasor~ 800;
#X obj 1222 135 -~ 1;
#X obj 1222 101 *~ 2;
#X obj 1193 56 phasor~ 350;
#X obj 1281 117 -~ 1;
#X obj 1063 99 route toggle1;
#X obj 1080 128 tgl 19 0 empty empty empty 0 -10 0 12 #fcfcfc #000000 #000000 0 1;
#X obj 1096 187 bng 19 250 50 0 empty empty empty 0 -10 0 12 #fcfcfc #000000 #000000;
#X obj 22 532 dac~;
#X text 124 385 VOLUMEN;
#X text 1079 35 SNARE;
#X obj 8 224 send signal;
#X obj 603 44 receive signal;
#X obj 101 405 receive signal;
#X obj 1055 61 receive signal;
#X obj 39 194 print;
#X obj 140 617 receive signal;
#X obj 300 301 receive signal;
#X msg 1487 262 1 \, 0 100;
#X obj 1487 295 line~;
#X obj 1490 327 pow~ 4;
#X obj 1501 375 *~;
#X obj 1484 114 tgl 19 0 empty empty empty 0 -10 0 12 #fcfcfc #000000 #000000 0 1;
#X obj 1496 176 bng 19 250 50 0 empty empty empty 0 -10 0 12 #fcfcfc #000000 #000000;
#X obj 1504 460 throw~ \$0-output;
#X obj 1461 55 receive signal;
#X text 1493 29 DRUM;
#X obj 1467 85 route toggle2;
#X obj 1520 208 t b b;
#X obj 1637 344 *~;
#X obj 1630 309 pow~ 4;
#X obj 1624 272 line~;
#X obj 1708 308 bp~ 5000 2;
#X obj 1710 275 hip~ 3000;
#X obj 1709 236 noise~;
#X msg 1619 242 1 \, 0 200;
#X obj 1503 413 +~;
#X obj 1553 330 osc~ 200;
#X obj 1302 522 tgl 19 0 empty empty empty 0 -10 0 12 #fcfcfc #000000 #000000 0 1;
#X obj 1314 585 bng 19 250 50 0 empty empty empty 0 -10 0 12 #fcfcfc #000000 #000000;
#X obj 1279 461 receive signal;
#X text 1320 431 X;
#X msg 1318 617 0 \, 1 200;
#X obj 1318 641 line~;
#X obj 1318 665 sqrt~;
#X obj 1318 689 *~ 20;
#X obj 1318 713 -~ 0.25;
#X obj 1318 737 cos~;
#X obj 1318 761 lop~ 1000;
#X obj 1285 494 route toggle3;
#X obj 12 429 +~;
#X obj 413 83 delwrite~ eco 2000;
#X obj 28 317 throw~ $delayIn;
#X obj 28 350 catch~ $delayOut;
#X obj 619 269 throw~ $delayOut;
#X obj 381 7 catch~ $delayIn;
#X obj 709 235 throw~ $delayFeedback;
#X obj 417 40 catch~ $delayFeedback;
#X text 607 16 DELAY/ECO;
#X text 299 238 DISTORTION;
#X obj 1126 394 throw~ \$0-output;
#X obj 30 494 *~;
#X obj 290 453 *~ 1;
#X obj 317 420 + 0.1;
#X obj 290 486 clip~ -0.3 0.3;
#X obj 28 389 *~ 1;
#X obj 606 163 delread~ eco;
#X obj 605 132 * 1000;
#X obj 93 509 * 5;
#X obj 603 96 route slider2Dx;
#X obj 705 197 *~;
#X obj 739 93 route slider2Dy;
#X obj 306 352 route slider2;
#X obj 102 435 route slider1;
#X obj 99 660 route slider3;
#X obj 357 625 receive signal;
#X obj 359 656 route slider4;
#X obj 100 474 hsl 162 19 0 1 0 0 empty empty empty -2 -10 0 12 #fcfcfc #000000 #000000 0 1;
#X obj 760 145 hsl 162 19 0 1 0 0 empty empty empty -2 -10 0 12 #fcfcfc #000000 #000000 0 1;
#X obj 433 184 hsl 162 19 0 1 0 0 empty empty empty -2 -10 0 12 #fcfcfc #000000 #000000 0 1;
#X obj 135 702 hsl 162 19 0 1 0 0 empty empty empty -2 -10 0 12 #fcfcfc #000000 #000000 0 1;
#X obj 18 728 *~;
#X obj 65 699 osc~;
#X obj 13 616 catch~ \$0-output;
#X obj 1317 789 throw~ \$0-output;
#X obj 17 773 throw~ \$1-output;
#X obj 279 269 catch~ \$1-output;
#X obj 288 527 throw~ \$2-output;
#X obj 6 277 catch~ \$2-output;
#X text 42 591 FREQ OSC;
#X obj 421 723 hsl 162 19 0 1000 0 0 empty empty empty -2 -10 0 12 #fcfcfc #000000 #000000 0 1;
#X obj 361 685 * 1000;
#X text 386 597 METRO;
#X obj 363 748 s metro;
#X obj 1379 532 r metro;
#X obj 1312 557 metro 100;
#X obj 1155 129 r metro;
#X obj 1096 163 metro 100;
#X obj 1554 114 r metro;
#X obj 1494 148 metro 100;
#X obj 827 922 bng 19 250 50 0 empty empty empty 0 -10 0 12 #fcfcfc #000000 #000000;
#X text 852 805 DO;
#X obj 818 877 route button 4;
#X obj 828 831 receive signal;
#X obj 850 1069 dac~;
#X obj 830 979 line~;
#X msg 825 950 0 \, 1 200;
#X obj 852 1020 *~;
#X obj 642 890 bng 19 250 50 0 empty empty empty 0 -10 0 12 #fcfcfc #000000 #000000;
#X obj 669 1068 dac~;
#X obj 667 988 makenote;
#X msg 716 944 100;
#X msg 681 944 90;
#X msg 634 947 83;
#X obj 706 897 loadbang;
#X obj 679 1026 noteout;
#X obj 1037 793 bng 19 250 50 0 empty empty empty 0 -10 0 12 #fcfcfc #000000 #000000;
#X msg 1041 825 0 \, 1 200;
#X obj 1041 849 line~;
#X obj 1041 897 *~ 20;
#X obj 1041 921 -~ 0.25;
#X obj 1041 945 cos~;
#X obj 1040 997 throw~ \$0-output;
#X connect 0 0 3 0;
#X connect 1 0 2 0;
#X connect 2 0 0 0;
#X connect 3 0 28 0;
#X connect 3 0 32 0;
#X connect 5 0 6 0;
#X connect 6 0 7 0;
#X connect 7 0 9 0;
#X connect 8 0 77 0;
#X connect 9 0 8 0;
#X connect 10 0 9 1;
#X connect 11 0 10 0;
#X connect 12 0 11 0;
#X connect 13 0 12 0;
#X connect 14 0 13 0;
#X connect 15 0 12 0;
#X connect 16 0 21 0;
#X connect 17 0 16 0;
#X connect 18 0 15 0;
#X connect 19 0 18 0;
#X connect 20 0 19 0;
#X connect 21 0 15 1;
#X connect 22 0 23 0;
#X connect 23 0 114 0;
#X connect 24 0 5 0;
#X connect 29 0 86 0;
#X connect 29 0 88 0;
#X connect 30 0 90 0;
#X connect 31 0 22 0;
#X connect 33 0 91 0;
#X connect 34 0 89 0;
#X connect 35 0 36 0;
#X connect 36 0 37 0;
#X connect 37 0 38 0;
#X connect 38 0 53 0;
#X connect 39 0 116 0;
#X connect 40 0 45 0;
#X connect 42 0 44 0;
#X connect 44 0 39 0;
#X connect 45 0 35 0;
#X connect 45 1 52 0;
#X connect 46 0 53 1;
#X connect 47 0 46 0;
#X connect 48 0 47 0;
#X connect 49 0 46 1;
#X connect 50 0 49 0;
#X connect 51 0 50 0;
#X connect 52 0 48 0;
#X connect 53 0 41 0;
#X connect 54 0 38 1;
#X connect 55 0 112 0;
#X connect 56 0 59 0;
#X connect 57 0 66 0;
#X connect 59 0 60 0;
#X connect 60 0 61 0;
#X connect 61 0 62 0;
#X connect 62 0 63 0;
#X connect 63 0 64 0;
#X connect 64 0 65 0;
#X connect 65 0 101 0;
#X connect 66 0 55 0;
#X connect 67 0 78 0;
#X connect 70 0 82 0;
#X connect 72 0 68 0;
#X connect 74 0 68 0;
#X connect 78 0 25 0;
#X connect 78 0 25 1;
#X connect 79 0 81 0;
#X connect 80 0 79 1;
#X connect 81 0 104 0;
#X connect 82 0 67 1;
#X connect 83 0 71 0;
#X connect 83 0 87 0;
#X connect 84 0 83 0;
#X connect 85 0 78 1;
#X connect 86 0 84 0;
#X connect 86 0 96 0;
#X connect 87 0 73 0;
#X connect 88 0 87 1;
#X connect 88 0 95 0;
#X connect 89 0 80 0;
#X connect 89 0 4 0;
#X connect 90 0 94 0;
#X connect 91 0 97 0;
#X connect 91 0 99 0;
#X connect 92 0 93 0;
#X connect 93 0 108 0;
#X connect 94 0 85 0;
#X connect 98 0 102 0;
#X connect 99 0 98 1;
#X connect 100 0 98 0;
#X connect 103 0 79 0;
#X connect 105 0 69 0;
#X connect 105 0 67 0;
#X connect 108 0 107 0;
#X connect 108 0 110 0;
#X connect 111 0 112 1;
#X connect 112 0 56 0;
#X connect 113 0 114 1;
#X connect 114 0 24 0;
#X connect 115 0 116 1;
#X connect 116 0 40 0;
#X connect 117 0 123 0;
#X connect 119 0 117 0;
#X connect 120 0 119 0;
#X connect 122 0 124 0;
#X connect 123 0 122 0;
#X connect 125 0 130 0;
#X connect 127 0 132 0;
#X connect 128 0 127 2;
#X connect 129 0 127 1;
#X connect 130 0 127 0;
#X connect 131 0 129 0;
#X connect 131 0 128 0;
#X connect 133 0 134 0;
#X connect 134 0 135 0;
#X connect 135 0 136 0;
#X connect 136 0 137 0;
#X connect 137 0 138 0;
#X connect 138 0 139 0;
