#N canvas 4 52 1920 989 12;
#X obj 11 113 oscparse;
#X msg 12 17 listen 212;
#X obj 12 63 netreceive -u -b;
#X obj 10 153 list trim;
#X obj 385 397 hsl 162 19 0 1 0 0 empty empty empty -2 -10 0 12 #fcfcfc #000000 #000000 0 1;
#X msg 1127 231 1 \, 0 100;
#X obj 1127 264 line~;
#X obj 1130 296 pow~ 4;
#X obj 1128 360 *~ 4;
#X obj 1129 328 *~;
#X obj 1229 289 hip~ 8000;
#X obj 1229 260 hip~ 8000;
#X obj 1228 234 hip~ 8000;
#X obj 1288 195 /~ 4;
#X obj 1290 157 noise~;
#X obj 1223 171 +~;
#X obj 1282 87 *~ 2;
#X obj 1284 55 phasor~ 800;
#X obj 1222 135 -~ 1;
#X obj 1222 101 *~ 2;
#X obj 1193 56 phasor~ 350;
#X obj 1281 117 -~ 1;
#X obj 1063 99 route toggle1;
#X obj 1080 128 tgl 19 0 empty empty empty 0 -10 0 12 #fcfcfc #000000 #000000 0 1;
#X obj 1096 187 bng 19 250 50 0 empty empty empty 0 -10 0 12 #fcfcfc #000000 #000000;
#X obj 22 532 dac~;
#X text 124 385 VOLUMEN;
#X text 1079 35 SNARE;
#X obj 8 224 send signal;
#X obj 603 44 receive signal;
#X obj 101 405 receive signal;
#X obj 1055 61 receive signal;
#X obj 39 194 print;
#X obj 140 617 receive signal;
#X obj 300 301 receive signal;
#X msg 1434 242 1 \, 0 100;
#X obj 1434 275 line~;
#X obj 1437 307 pow~ 4;
#X obj 1448 355 *~;
#X obj 1431 94 tgl 19 0 empty empty empty 0 -10 0 12 #fcfcfc #000000 #000000 0 1;
#X obj 1443 156 bng 19 250 50 0 empty empty empty 0 -10 0 12 #fcfcfc #000000 #000000;
#X obj 1451 440 throw~ \$0-output;
#X obj 1408 35 receive signal;
#X text 1440 9 DRUM;
#X obj 1414 65 route toggle2;
#X obj 1467 188 t b b;
#X obj 1584 324 *~;
#X obj 1577 289 pow~ 4;
#X obj 1571 252 line~;
#X obj 1655 288 bp~ 5000 2;
#X obj 1657 255 hip~ 3000;
#X obj 1656 216 noise~;
#X msg 1566 222 1 \, 0 200;
#X obj 1450 393 +~;
#X obj 1500 310 osc~ 200;
#X obj 1782 157 tgl 19 0 empty empty empty 0 -10 0 12 #fcfcfc #000000 #000000 0 1;
#X obj 1794 220 bng 19 250 50 0 empty empty empty 0 -10 0 12 #fcfcfc #000000 #000000;
#X obj 1759 96 receive signal;
#X text 1800 66 X;
#X msg 1798 252 0 \, 1 200;
#X obj 1798 276 line~;
#X obj 1798 300 sqrt~;
#X obj 1798 324 *~ 20;
#X obj 1798 348 -~ 0.25;
#X obj 1798 372 cos~;
#X obj 1798 396 lop~ 1000;
#X obj 1765 129 route toggle3;
#X obj 12 429 +~;
#X obj 413 83 delwrite~ eco 2000;
#X obj 28 317 throw~ $delayIn;
#X obj 28 350 catch~ $delayOut;
#X obj 619 269 throw~ $delayOut;
#X obj 381 7 catch~ $delayIn;
#X obj 709 235 throw~ $delayFeedback;
#X obj 417 40 catch~ $delayFeedback;
#X text 607 16 DELAY/ECO;
#X text 299 238 DISTORTION;
#X obj 1126 394 throw~ \$0-output;
#X obj 30 494 *~;
#X obj 290 453 *~ 1;
#X obj 317 420 + 0.1;
#X obj 290 486 clip~ -0.3 0.3;
#X obj 28 389 *~ 1;
#X obj 606 163 delread~ eco;
#X obj 605 132 * 1000;
#X obj 93 509 * 5;
#X obj 603 96 route slider2Dx;
#X obj 705 197 *~;
#X obj 739 93 route slider2Dy;
#X obj 306 352 route slider2;
#X obj 102 435 route slider1;
#X obj 99 660 route slider3;
#X obj 357 625 receive signal;
#X obj 359 656 route slider4;
#X obj 100 474 hsl 162 19 0 1 0 0 empty empty empty -2 -10 0 12 #fcfcfc #000000 #000000 0 1;
#X obj 760 145 hsl 162 19 0 1 0 0 empty empty empty -2 -10 0 12 #fcfcfc #000000 #000000 0 1;
#X obj 433 184 hsl 162 19 0 1 0 0 empty empty empty -2 -10 0 12 #fcfcfc #000000 #000000 0 1;
#X obj 135 702 hsl 162 19 0 1 0 0 empty empty empty -2 -10 0 12 #fcfcfc #000000 #000000 0 1;
#X obj 18 728 *~;
#X obj 65 699 osc~;
#X obj 13 616 catch~ \$0-output;
#X obj 1797 424 throw~ \$0-output;
#X obj 17 773 throw~ \$1-output;
#X obj 279 269 catch~ \$1-output;
#X obj 288 527 throw~ \$2-output;
#X obj 6 277 catch~ \$2-output;
#X text 42 591 FREQ OSC;
#X obj 381 718 hsl 162 19 0 1000 0 0 empty empty empty -2 -10 0 12 #fcfcfc #000000 #000000 0 1;
#X obj 361 685 * 1000;
#X text 386 597 METRO;
#X obj 363 748 s metro;
#X obj 1850 159 r metro;
#X obj 1792 192 metro 100;
#X obj 1155 129 r metro;
#X obj 1096 163 metro 100;
#X obj 1501 94 r metro;
#X obj 1441 128 metro 100;
#X obj 648 487 receive signal;
#X obj 693 904 throw~ \$0-output;
#X obj 652 520 route button1;
#X obj 656 544 bng 16 250 50 0 empty empty empty 0 -8 0 10 #fcfcfc #000000 #000000;
#X obj 675 648 noise~;
#X obj 611 677 *~;
#X obj 740 723 *~;
#X obj 648 598 vline~;
#X msg 649 574 1 0 \, 0 11 0 \, 1 0 11 \, 0 12 11 \, 1 0 23 \, 0 8 23 \, 1 0 31 \, 0 50 31, f 62;
#X obj 648 620 pow~ 3;
#X obj 613 712 *~ 0.7;
#X obj 620 789 lop~ 3000;
#X obj 622 818 hip~ 600;
#X obj 641 749 bp~ 1000 5;
#X obj 739 801 *~ 0.4;
#X obj 744 762 bp~ 2200 3;
#X obj 752 635 vline~;
#X obj 752 657 pow~ 1.8;
#X msg 752 613 1 36 \, 0 440 36;
#X obj 920 378 receive signal;
#X text 683 456 CLAP;
#X text 943 350 Buttons;
#N canvas 306 96 1244 809 button 0;
#X obj 37 37 inlet;
#X obj 1392 518 bng 16 250 50 0 empty empty empty 0 -8 0 10 #fcfcfc #000000 #000000;
#X obj 1395 655 noteout 1;
#X msg 1397 547 65;
#X msg 1448 546 92;
#X msg 1439 606 100;
#X obj 1448 578 loadbang;
#X obj 1402 528 bng 16 250 50 0 empty empty empty 0 -8 0 10 #fcfcfc #000000 #000000;
#X obj 1405 665 noteout 1;
#X msg 1407 557 65;
#X msg 1458 556 92;
#X msg 1449 616 100;
#X obj 1458 588 loadbang;
#X obj 1412 538 bng 16 250 50 0 empty empty empty 0 -8 0 10 #fcfcfc #000000 #000000;
#X obj 1415 675 noteout 1;
#X msg 1417 567 65;
#X msg 1468 566 92;
#X msg 1459 626 100;
#X obj 1468 598 loadbang;
#X obj 1555 640 bng 16 250 50 0 empty empty empty 0 -8 0 10 #fcfcfc #000000 #000000;
#X obj 1558 777 noteout 1;
#X msg 1560 669 65;
#X msg 1611 668 92;
#X msg 1602 728 100;
#X obj 1611 700 loadbang;
#X obj 159 71 route gridButton1;
#X obj 37 61 s num;
#X obj 159 43 r num;
#X obj 159 100 bng 19 250 50 0 empty empty empty 0 -10 0 12 #fcfcfc #000000 #000000;
#X obj 230 107 loadbang;
#X msg 230 131 90;
#X msg 159 124 36;
#X obj 159 174 noteout 1;
#X obj 335 35 r num;
#X obj 335 92 bng 19 250 50 0 empty empty empty 0 -10 0 12 #fcfcfc #000000 #000000;
#X obj 406 99 loadbang;
#X msg 406 123 90;
#X obj 335 166 noteout 1;
#X obj 504 38 r num;
#X obj 504 95 bng 19 250 50 0 empty empty empty 0 -10 0 12 #fcfcfc #000000 #000000;
#X obj 575 102 loadbang;
#X msg 575 126 90;
#X obj 504 169 noteout 1;
#X obj 681 39 r num;
#X obj 681 96 bng 19 250 50 0 empty empty empty 0 -10 0 12 #fcfcfc #000000 #000000;
#X obj 752 103 loadbang;
#X msg 752 127 90;
#X obj 681 170 noteout 1;
#X obj 858 38 r num;
#X obj 858 95 bng 19 250 50 0 empty empty empty 0 -10 0 12 #fcfcfc #000000 #000000;
#X obj 929 102 loadbang;
#X msg 929 126 90;
#X obj 858 169 noteout 1;
#X obj 159 231 r num;
#X obj 159 288 bng 19 250 50 0 empty empty empty 0 -10 0 12 #fcfcfc #000000 #000000;
#X obj 230 295 loadbang;
#X msg 230 319 90;
#X obj 159 362 noteout 1;
#X obj 334 227 r num;
#X obj 334 284 bng 19 250 50 0 empty empty empty 0 -10 0 12 #fcfcfc #000000 #000000;
#X obj 405 291 loadbang;
#X msg 405 315 90;
#X obj 334 358 noteout 1;
#X obj 513 230 r num;
#X obj 513 287 bng 19 250 50 0 empty empty empty 0 -10 0 12 #fcfcfc #000000 #000000;
#X obj 584 294 loadbang;
#X msg 584 318 90;
#X obj 513 361 noteout 1;
#X obj 691 227 r num;
#X obj 691 284 bng 19 250 50 0 empty empty empty 0 -10 0 12 #fcfcfc #000000 #000000;
#X obj 762 291 loadbang;
#X msg 762 315 90;
#X obj 691 358 noteout 1;
#X obj 866 228 r num;
#X obj 866 285 bng 19 250 50 0 empty empty empty 0 -10 0 12 #fcfcfc #000000 #000000;
#X obj 937 292 loadbang;
#X msg 937 316 90;
#X obj 866 359 noteout 1;
#X obj 166 419 r num;
#X obj 166 476 bng 19 250 50 0 empty empty empty 0 -10 0 12 #fcfcfc #000000 #000000;
#X obj 237 483 loadbang;
#X msg 237 507 90;
#X obj 166 550 noteout 1;
#X obj 341 415 r num;
#X obj 341 472 bng 19 250 50 0 empty empty empty 0 -10 0 12 #fcfcfc #000000 #000000;
#X obj 412 479 loadbang;
#X msg 412 503 90;
#X obj 341 546 noteout 1;
#X obj 520 418 r num;
#X obj 520 475 bng 19 250 50 0 empty empty empty 0 -10 0 12 #fcfcfc #000000 #000000;
#X obj 591 482 loadbang;
#X msg 591 506 90;
#X obj 520 549 noteout 1;
#X obj 698 415 r num;
#X obj 698 472 bng 19 250 50 0 empty empty empty 0 -10 0 12 #fcfcfc #000000 #000000;
#X obj 769 479 loadbang;
#X msg 769 503 90;
#X obj 698 546 noteout 1;
#X obj 873 416 r num;
#X obj 873 473 bng 19 250 50 0 empty empty empty 0 -10 0 12 #fcfcfc #000000 #000000;
#X obj 944 480 loadbang;
#X msg 944 504 90;
#X obj 873 547 noteout 1;
#X obj 158 615 r num;
#X obj 158 672 bng 19 250 50 0 empty empty empty 0 -10 0 12 #fcfcfc #000000 #000000;
#X obj 229 679 loadbang;
#X msg 229 703 90;
#X obj 158 746 noteout 1;
#X obj 333 611 r num;
#X obj 333 668 bng 19 250 50 0 empty empty empty 0 -10 0 12 #fcfcfc #000000 #000000;
#X obj 404 675 loadbang;
#X msg 404 699 90;
#X obj 333 742 noteout 1;
#X obj 512 614 r num;
#X obj 512 671 bng 19 250 50 0 empty empty empty 0 -10 0 12 #fcfcfc #000000 #000000;
#X obj 583 678 loadbang;
#X msg 583 702 90;
#X obj 512 745 noteout 1;
#X obj 690 611 r num;
#X obj 690 668 bng 19 250 50 0 empty empty empty 0 -10 0 12 #fcfcfc #000000 #000000;
#X obj 761 675 loadbang;
#X msg 761 699 90;
#X obj 690 742 noteout 1;
#X obj 865 612 r num;
#X obj 865 669 bng 19 250 50 0 empty empty empty 0 -10 0 12 #fcfcfc #000000 #000000;
#X obj 936 676 loadbang;
#X msg 936 700 90;
#X obj 865 743 noteout 1;
#X obj 166 816 r num;
#X obj 166 873 bng 19 250 50 0 empty empty empty 0 -10 0 12 #fcfcfc #000000 #000000;
#X obj 237 880 loadbang;
#X msg 237 904 90;
#X obj 166 947 noteout 1;
#X obj 341 840 route gridButton1;
#X obj 341 812 r num;
#X obj 341 869 bng 19 250 50 0 empty empty empty 0 -10 0 12 #fcfcfc #000000 #000000;
#X obj 412 876 loadbang;
#X msg 412 900 90;
#X obj 341 943 noteout 1;
#X obj 520 843 route gridButton1;
#X obj 520 815 r num;
#X obj 520 872 bng 19 250 50 0 empty empty empty 0 -10 0 12 #fcfcfc #000000 #000000;
#X obj 591 879 loadbang;
#X msg 591 903 90;
#X obj 520 946 noteout 1;
#X obj 698 840 route gridButton1;
#X obj 698 812 r num;
#X obj 698 869 bng 19 250 50 0 empty empty empty 0 -10 0 12 #fcfcfc #000000 #000000;
#X obj 769 876 loadbang;
#X msg 769 900 90;
#X obj 698 943 noteout 1;
#X msg 335 116 38;
#X obj 335 63 route gridButton2;
#X msg 504 119 40;
#X obj 504 66 route gridButton3;
#X obj 681 67 route gridButton4;
#X msg 681 120 41;
#X msg 858 119 43;
#X msg 159 312 45;
#X msg 334 308 47;
#X msg 513 311 48;
#X msg 691 308 50;
#X msg 866 309 52;
#X msg 166 500 53;
#X msg 341 496 55;
#X msg 520 499 57;
#X msg 698 496 59;
#X msg 873 497 60;
#X msg 158 696 62;
#X msg 333 692 64;
#X msg 512 695 65;
#X msg 690 692 67;
#X msg 865 693 69;
#X msg 166 897 71;
#X msg 341 893 72;
#X msg 520 896 74;
#X msg 698 893 76;
#X obj 957 831 bng 19 250 50 0 empty empty empty 0 -10 0 12 #fcfcfc #000000 #000000;
#X msg 957 870 76;
#X obj 994 901 +;
#X obj 1010 791 bng 19 250 50 0 empty empty empty 0 -10 0 12 #fcfcfc #000000 #000000;
#X floatatom 1030 872 5 0 0 0 - - - 0;
#X floatatom 994 933 5 0 0 0 - - - 0;
#X obj 1062 789 bng 19 250 50 0 empty empty empty 0 -10 0 12 #fcfcfc #000000 #000000;
#X msg 1013 825 12;
#X obj 1116 789 bng 19 250 50 0 empty empty empty 0 -10 0 12 #fcfcfc #000000 #000000;
#X msg 1119 823 -12;
#X msg 1065 823 0;
#X obj 858 66 route gridButton5;
#X obj 159 259 route gridButton6;
#X obj 334 255 route gridButton7;
#X obj 513 258 route gridButton8;
#X obj 691 255 route gridButton9;
#X obj 866 256 route gridButton10;
#X obj 166 447 route gridButton11;
#X obj 341 443 route gridButton12;
#X obj 520 446 route gridButton13;
#X obj 698 443 route gridButton14;
#X obj 873 444 route gridButton15;
#X obj 158 643 route gridButton16;
#X obj 333 639 route gridButton17;
#X obj 512 642 route gridButton18;
#X obj 690 639 route gridButton19;
#X obj 865 640 route gridButton20;
#X obj 166 844 route gridButton21;
#X connect 0 0 26 0;
#X connect 1 0 3 0;
#X connect 1 0 4 0;
#X connect 3 0 2 0;
#X connect 4 0 2 0;
#X connect 5 0 2 1;
#X connect 6 0 5 0;
#X connect 7 0 9 0;
#X connect 7 0 10 0;
#X connect 9 0 8 0;
#X connect 10 0 8 0;
#X connect 11 0 8 1;
#X connect 12 0 11 0;
#X connect 13 0 15 0;
#X connect 13 0 16 0;
#X connect 15 0 14 0;
#X connect 16 0 14 0;
#X connect 17 0 14 1;
#X connect 18 0 17 0;
#X connect 19 0 21 0;
#X connect 19 0 22 0;
#X connect 21 0 20 0;
#X connect 22 0 20 0;
#X connect 23 0 20 1;
#X connect 24 0 23 0;
#X connect 25 0 28 0;
#X connect 27 0 25 0;
#X connect 28 0 31 0;
#X connect 29 0 30 0;
#X connect 30 0 32 1;
#X connect 31 0 32 0;
#X connect 33 0 152 0;
#X connect 34 0 151 0;
#X connect 35 0 36 0;
#X connect 36 0 37 1;
#X connect 38 0 154 0;
#X connect 39 0 153 0;
#X connect 40 0 41 0;
#X connect 41 0 42 1;
#X connect 43 0 155 0;
#X connect 44 0 156 0;
#X connect 45 0 46 0;
#X connect 46 0 47 1;
#X connect 48 0 188 0;
#X connect 49 0 157 0;
#X connect 50 0 51 0;
#X connect 51 0 52 1;
#X connect 53 0 189 0;
#X connect 54 0 158 0;
#X connect 55 0 56 0;
#X connect 56 0 57 1;
#X connect 58 0 190 0;
#X connect 59 0 159 0;
#X connect 60 0 61 0;
#X connect 61 0 62 1;
#X connect 63 0 191 0;
#X connect 64 0 160 0;
#X connect 65 0 66 0;
#X connect 66 0 67 1;
#X connect 68 0 192 0;
#X connect 69 0 161 0;
#X connect 70 0 71 0;
#X connect 71 0 72 1;
#X connect 73 0 193 0;
#X connect 74 0 162 0;
#X connect 75 0 76 0;
#X connect 76 0 77 1;
#X connect 78 0 194 0;
#X connect 79 0 163 0;
#X connect 80 0 81 0;
#X connect 81 0 82 1;
#X connect 83 0 195 0;
#X connect 84 0 164 0;
#X connect 85 0 86 0;
#X connect 86 0 87 1;
#X connect 88 0 196 0;
#X connect 89 0 165 0;
#X connect 90 0 91 0;
#X connect 91 0 92 1;
#X connect 93 0 197 0;
#X connect 94 0 166 0;
#X connect 95 0 96 0;
#X connect 96 0 97 1;
#X connect 98 0 198 0;
#X connect 99 0 167 0;
#X connect 100 0 101 0;
#X connect 101 0 102 1;
#X connect 103 0 199 0;
#X connect 104 0 168 0;
#X connect 105 0 106 0;
#X connect 106 0 107 1;
#X connect 108 0 200 0;
#X connect 109 0 169 0;
#X connect 110 0 111 0;
#X connect 111 0 112 1;
#X connect 113 0 201 0;
#X connect 114 0 170 0;
#X connect 115 0 116 0;
#X connect 116 0 117 1;
#X connect 118 0 202 0;
#X connect 119 0 171 0;
#X connect 120 0 121 0;
#X connect 121 0 122 1;
#X connect 123 0 203 0;
#X connect 124 0 172 0;
#X connect 125 0 126 0;
#X connect 126 0 127 1;
#X connect 128 0 204 0;
#X connect 129 0 173 0;
#X connect 130 0 131 0;
#X connect 131 0 132 1;
#X connect 133 0 135 0;
#X connect 134 0 133 0;
#X connect 135 0 174 0;
#X connect 136 0 137 0;
#X connect 137 0 138 1;
#X connect 139 0 141 0;
#X connect 140 0 139 0;
#X connect 141 0 175 0;
#X connect 142 0 143 0;
#X connect 143 0 144 1;
#X connect 145 0 147 0;
#X connect 146 0 145 0;
#X connect 147 0 176 0;
#X connect 148 0 149 0;
#X connect 149 0 150 1;
#X connect 151 0 37 0;
#X connect 152 0 34 0;
#X connect 153 0 42 0;
#X connect 154 0 39 0;
#X connect 155 0 44 0;
#X connect 156 0 47 0;
#X connect 157 0 52 0;
#X connect 158 0 57 0;
#X connect 159 0 62 0;
#X connect 160 0 67 0;
#X connect 161 0 72 0;
#X connect 162 0 77 0;
#X connect 163 0 82 0;
#X connect 164 0 87 0;
#X connect 165 0 92 0;
#X connect 166 0 97 0;
#X connect 167 0 102 0;
#X connect 168 0 107 0;
#X connect 169 0 112 0;
#X connect 170 0 117 0;
#X connect 171 0 122 0;
#X connect 172 0 127 0;
#X connect 173 0 132 0;
#X connect 174 0 138 0;
#X connect 175 0 144 0;
#X connect 176 0 150 0;
#X connect 177 0 178 0;
#X connect 178 0 179 0;
#X connect 179 0 182 0;
#X connect 180 0 184 0;
#X connect 181 0 179 1;
#X connect 183 0 187 0;
#X connect 184 0 181 0;
#X connect 185 0 186 0;
#X connect 186 0 181 0;
#X connect 187 0 181 0;
#X connect 188 0 49 0;
#X connect 189 0 54 0;
#X connect 190 0 59 0;
#X connect 191 0 64 0;
#X connect 192 0 69 0;
#X connect 193 0 74 0;
#X connect 194 0 79 0;
#X connect 195 0 84 0;
#X connect 196 0 89 0;
#X connect 197 0 94 0;
#X connect 198 0 99 0;
#X connect 199 0 104 0;
#X connect 200 0 109 0;
#X connect 201 0 114 0;
#X connect 202 0 119 0;
#X connect 203 0 124 0;
#X connect 204 0 129 0;
#X restore 920 402 pd button;
#X obj 769 374 receive signal;
#X text 792 346 Toggles;
#N canvas 306 96 1244 809 toggle 1;
#X obj 37 37 inlet;
#X obj 1392 518 bng 16 250 50 0 empty empty empty 0 -8 0 10 #fcfcfc #000000 #000000;
#X obj 1395 655 noteout 1;
#X msg 1397 547 65;
#X msg 1448 546 92;
#X msg 1439 606 100;
#X obj 1448 578 loadbang;
#X obj 1402 528 bng 16 250 50 0 empty empty empty 0 -8 0 10 #fcfcfc #000000 #000000;
#X obj 1405 665 noteout 1;
#X msg 1407 557 65;
#X msg 1458 556 92;
#X msg 1449 616 100;
#X obj 1458 588 loadbang;
#X obj 1412 538 bng 16 250 50 0 empty empty empty 0 -8 0 10 #fcfcfc #000000 #000000;
#X obj 1415 675 noteout 1;
#X msg 1417 567 65;
#X msg 1468 566 92;
#X msg 1459 626 100;
#X obj 1468 598 loadbang;
#X obj 1555 640 bng 16 250 50 0 empty empty empty 0 -8 0 10 #fcfcfc #000000 #000000;
#X obj 1558 777 noteout 1;
#X msg 1560 669 65;
#X msg 1611 668 92;
#X msg 1602 728 100;
#X obj 1611 700 loadbang;
#X obj 37 61 s num;
#X obj 159 43 r num;
#X obj 335 35 r num;
#X obj 335 92 bng 19 250 50 0 empty empty empty 0 -10 0 12 #fcfcfc #000000 #000000;
#X obj 406 99 loadbang;
#X msg 406 123 90;
#X obj 335 166 noteout 1;
#X obj 504 38 r num;
#X obj 504 95 bng 19 250 50 0 empty empty empty 0 -10 0 12 #fcfcfc #000000 #000000;
#X obj 575 102 loadbang;
#X msg 575 126 90;
#X obj 504 169 noteout 1;
#X obj 681 39 r num;
#X obj 681 96 bng 19 250 50 0 empty empty empty 0 -10 0 12 #fcfcfc #000000 #000000;
#X obj 752 103 loadbang;
#X msg 752 127 90;
#X obj 681 170 noteout 1;
#X obj 858 38 r num;
#X obj 858 95 bng 19 250 50 0 empty empty empty 0 -10 0 12 #fcfcfc #000000 #000000;
#X obj 929 102 loadbang;
#X msg 929 126 90;
#X obj 858 169 noteout 1;
#X obj 140 701 r num;
#X obj 140 758 bng 19 250 50 0 empty empty empty 0 -10 0 12 #fcfcfc #000000 #000000;
#X obj 211 765 loadbang;
#X msg 211 789 90;
#X obj 140 832 noteout 1;
#X obj 315 697 r num;
#X obj 315 754 bng 19 250 50 0 empty empty empty 0 -10 0 12 #fcfcfc #000000 #000000;
#X obj 386 761 loadbang;
#X msg 386 785 90;
#X obj 315 828 noteout 1;
#X obj 494 700 r num;
#X obj 494 757 bng 19 250 50 0 empty empty empty 0 -10 0 12 #fcfcfc #000000 #000000;
#X obj 565 764 loadbang;
#X msg 565 788 90;
#X obj 494 831 noteout 1;
#X obj 672 697 r num;
#X obj 672 754 bng 19 250 50 0 empty empty empty 0 -10 0 12 #fcfcfc #000000 #000000;
#X obj 743 761 loadbang;
#X msg 743 785 90;
#X obj 672 828 noteout 1;
#X obj 847 698 r num;
#X obj 847 755 bng 19 250 50 0 empty empty empty 0 -10 0 12 #fcfcfc #000000 #000000;
#X obj 918 762 loadbang;
#X msg 918 786 90;
#X obj 847 829 noteout 1;
#X obj 147 889 r num;
#X obj 147 946 bng 19 250 50 0 empty empty empty 0 -10 0 12 #fcfcfc #000000 #000000;
#X obj 218 953 loadbang;
#X msg 218 977 90;
#X obj 147 1020 noteout 1;
#X obj 322 885 r num;
#X obj 322 942 bng 19 250 50 0 empty empty empty 0 -10 0 12 #fcfcfc #000000 #000000;
#X obj 393 949 loadbang;
#X msg 393 973 90;
#X obj 322 1016 noteout 1;
#X obj 501 888 r num;
#X obj 501 945 bng 19 250 50 0 empty empty empty 0 -10 0 12 #fcfcfc #000000 #000000;
#X obj 572 952 loadbang;
#X msg 572 976 90;
#X obj 501 1019 noteout 1;
#X obj 679 885 r num;
#X obj 679 942 bng 19 250 50 0 empty empty empty 0 -10 0 12 #fcfcfc #000000 #000000;
#X obj 750 949 loadbang;
#X msg 750 973 90;
#X obj 679 1016 noteout 1;
#X obj 854 886 r num;
#X obj 854 943 bng 19 250 50 0 empty empty empty 0 -10 0 12 #fcfcfc #000000 #000000;
#X obj 925 950 loadbang;
#X msg 925 974 90;
#X obj 854 1017 noteout 1;
#X obj 139 1085 r num;
#X obj 139 1142 bng 19 250 50 0 empty empty empty 0 -10 0 12 #fcfcfc #000000 #000000;
#X obj 210 1149 loadbang;
#X msg 210 1173 90;
#X obj 139 1216 noteout 1;
#X obj 314 1081 r num;
#X obj 314 1138 bng 19 250 50 0 empty empty empty 0 -10 0 12 #fcfcfc #000000 #000000;
#X obj 385 1145 loadbang;
#X msg 385 1169 90;
#X obj 314 1212 noteout 1;
#X obj 493 1084 r num;
#X obj 493 1141 bng 19 250 50 0 empty empty empty 0 -10 0 12 #fcfcfc #000000 #000000;
#X obj 564 1148 loadbang;
#X msg 564 1172 90;
#X obj 493 1215 noteout 1;
#X obj 671 1081 r num;
#X obj 671 1138 bng 19 250 50 0 empty empty empty 0 -10 0 12 #fcfcfc #000000 #000000;
#X obj 742 1145 loadbang;
#X msg 742 1169 90;
#X obj 671 1212 noteout 1;
#X obj 846 1082 r num;
#X obj 846 1139 bng 19 250 50 0 empty empty empty 0 -10 0 12 #fcfcfc #000000 #000000;
#X obj 917 1146 loadbang;
#X msg 917 1170 90;
#X obj 846 1213 noteout 1;
#X obj 147 1286 r num;
#X obj 147 1343 bng 19 250 50 0 empty empty empty 0 -10 0 12 #fcfcfc #000000 #000000;
#X obj 218 1350 loadbang;
#X msg 218 1374 90;
#X obj 147 1417 noteout 1;
#X obj 322 1310 route gridButton1;
#X obj 322 1282 r num;
#X obj 322 1339 bng 19 250 50 0 empty empty empty 0 -10 0 12 #fcfcfc #000000 #000000;
#X obj 393 1346 loadbang;
#X msg 393 1370 90;
#X obj 322 1413 noteout 1;
#X obj 501 1313 route gridButton1;
#X obj 501 1285 r num;
#X obj 501 1342 bng 19 250 50 0 empty empty empty 0 -10 0 12 #fcfcfc #000000 #000000;
#X obj 572 1349 loadbang;
#X msg 572 1373 90;
#X obj 501 1416 noteout 1;
#X obj 679 1310 route gridButton1;
#X obj 679 1282 r num;
#X obj 679 1339 bng 19 250 50 0 empty empty empty 0 -10 0 12 #fcfcfc #000000 #000000;
#X obj 750 1346 loadbang;
#X msg 750 1370 90;
#X obj 679 1413 noteout 1;
#X msg 335 116 38;
#X obj 335 63 route gridButton2;
#X msg 504 119 40;
#X obj 504 66 route gridButton3;
#X obj 681 67 route gridButton4;
#X msg 681 120 41;
#X msg 858 119 43;
#X msg 140 782 45;
#X msg 315 778 47;
#X msg 494 781 48;
#X msg 672 778 50;
#X msg 847 779 52;
#X msg 147 970 53;
#X msg 322 966 55;
#X msg 501 969 57;
#X msg 679 966 59;
#X msg 854 967 60;
#X msg 139 1166 62;
#X msg 314 1162 64;
#X msg 493 1165 65;
#X msg 671 1162 67;
#X msg 846 1163 69;
#X msg 147 1367 71;
#X msg 322 1363 72;
#X msg 501 1366 74;
#X msg 679 1363 76;
#X obj 938 1301 bng 19 250 50 0 empty empty empty 0 -10 0 12 #fcfcfc #000000 #000000;
#X msg 938 1340 76;
#X obj 975 1371 +;
#X obj 991 1261 bng 19 250 50 0 empty empty empty 0 -10 0 12 #fcfcfc #000000 #000000;
#X floatatom 1011 1342 5 0 0 0 - - - 0;
#X floatatom 975 1403 5 0 0 0 - - - 0;
#X obj 1043 1259 bng 19 250 50 0 empty empty empty 0 -10 0 12 #fcfcfc #000000 #000000;
#X msg 994 1295 12;
#X obj 1097 1259 bng 19 250 50 0 empty empty empty 0 -10 0 12 #fcfcfc #000000 #000000;
#X msg 1100 1293 -12;
#X msg 1046 1293 0;
#X obj 858 66 route gridButton5;
#X obj 140 729 route gridButton6;
#X obj 315 725 route gridButton7;
#X obj 494 728 route gridButton8;
#X obj 672 725 route gridButton9;
#X obj 847 726 route gridButton10;
#X obj 147 917 route gridButton11;
#X obj 322 913 route gridButton12;
#X obj 501 916 route gridButton13;
#X obj 679 913 route gridButton14;
#X obj 854 914 route gridButton15;
#X obj 139 1113 route gridButton16;
#X obj 314 1109 route gridButton17;
#X obj 493 1112 route gridButton18;
#X obj 671 1109 route gridButton19;
#X obj 846 1110 route gridButton20;
#X obj 147 1314 route gridButton21;
#N canvas 4 52 1920 989 oscs 0;
#X obj 78 76 mtof;
#X obj 105 152 * 1.015;
#X obj 183 153 * 0.503;
#X obj 266 153 * 1.496;
#X obj 69 34 inlet;
#X obj 281 372 outlet~;
#X obj 45 252 osc~;
#X obj 115 251 osc~;
#X obj 174 264 osc~;
#X obj 271 265 osc~;
#X obj 340 261 osc~;
#X obj 334 146 * 2.01;
#X connect 0 0 2 0;
#X connect 0 0 1 0;
#X connect 0 0 3 0;
#X connect 0 0 6 0;
#X connect 0 0 11 0;
#X connect 1 0 7 0;
#X connect 2 0 8 0;
#X connect 3 0 9 0;
#X connect 4 0 0 0;
#X connect 6 0 5 0;
#X connect 7 0 5 0;
#X connect 8 0 5 0;
#X connect 9 0 5 0;
#X connect 10 0 5 0;
#X connect 11 0 10 0;
#X restore 191 245 pd oscs;
#X obj 195 318 throw~ \$0-output;
#X obj 154 114 tgl 19 0 empty empty empty 0 -10 0 12 #fcfcfc #000000 #000000 0 1;
#X obj 193 285 *~ 0.25;
#N canvas 78 78 450 300 notes 1;
#X obj 131 44 inlet;
#X obj 126 217 tabread notes;
#X floatatom 128 187 5 0 0 0 - - - 0;
#X floatatom 127 248 5 0 0 0 - - - 0;
#X obj 134 110 bng 19 250 50 0 empty empty empty 0 -10 0 12 #fcfcfc #000000 #000000;
#X obj 133 81 metro;
#X obj 188 56 r metro;
#X obj 132 136 i 0;
#X obj 163 162 + 1;
#X obj 129 273 outlet;
#X obj 314 203 table notes;
#X obj 64 98 inlet;
#X obj 272 63 loadbang;
#X msg 227 101 \; notes 0 55 58 60 67 62 68 70 73;
#X obj 227 163 % 8;
#X connect 0 0 5 0;
#X connect 1 0 3 0;
#X connect 2 0 1 0;
#X connect 3 0 9 0;
#X connect 4 0 7 0;
#X connect 5 0 4 0;
#X connect 6 0 5 1;
#X connect 7 0 8 0;
#X connect 7 0 2 0;
#X connect 8 0 14 0;
#X connect 11 0 7 1;
#X connect 12 0 13 0;
#X connect 14 0 7 1;
#X restore 184 162 pd notes;
#X floatatom 190 214 5 0 0 0 - - - 0;
#X obj 128 156 sel 0;
#X msg 132 189 0;
#X obj 159 71 route gridToggle1;
#X connect 0 0 25 0;
#X connect 1 0 3 0;
#X connect 1 0 4 0;
#X connect 3 0 2 0;
#X connect 4 0 2 0;
#X connect 5 0 2 1;
#X connect 6 0 5 0;
#X connect 7 0 9 0;
#X connect 7 0 10 0;
#X connect 9 0 8 0;
#X connect 10 0 8 0;
#X connect 11 0 8 1;
#X connect 12 0 11 0;
#X connect 13 0 15 0;
#X connect 13 0 16 0;
#X connect 15 0 14 0;
#X connect 16 0 14 0;
#X connect 17 0 14 1;
#X connect 18 0 17 0;
#X connect 19 0 21 0;
#X connect 19 0 22 0;
#X connect 21 0 20 0;
#X connect 22 0 20 0;
#X connect 23 0 20 1;
#X connect 24 0 23 0;
#X connect 26 0 207 0;
#X connect 27 0 146 0;
#X connect 28 0 145 0;
#X connect 29 0 30 0;
#X connect 30 0 31 1;
#X connect 32 0 148 0;
#X connect 33 0 147 0;
#X connect 34 0 35 0;
#X connect 35 0 36 1;
#X connect 37 0 149 0;
#X connect 38 0 150 0;
#X connect 39 0 40 0;
#X connect 40 0 41 1;
#X connect 42 0 182 0;
#X connect 43 0 151 0;
#X connect 44 0 45 0;
#X connect 45 0 46 1;
#X connect 47 0 183 0;
#X connect 48 0 152 0;
#X connect 49 0 50 0;
#X connect 50 0 51 1;
#X connect 52 0 184 0;
#X connect 53 0 153 0;
#X connect 54 0 55 0;
#X connect 55 0 56 1;
#X connect 57 0 185 0;
#X connect 58 0 154 0;
#X connect 59 0 60 0;
#X connect 60 0 61 1;
#X connect 62 0 186 0;
#X connect 63 0 155 0;
#X connect 64 0 65 0;
#X connect 65 0 66 1;
#X connect 67 0 187 0;
#X connect 68 0 156 0;
#X connect 69 0 70 0;
#X connect 70 0 71 1;
#X connect 72 0 188 0;
#X connect 73 0 157 0;
#X connect 74 0 75 0;
#X connect 75 0 76 1;
#X connect 77 0 189 0;
#X connect 78 0 158 0;
#X connect 79 0 80 0;
#X connect 80 0 81 1;
#X connect 82 0 190 0;
#X connect 83 0 159 0;
#X connect 84 0 85 0;
#X connect 85 0 86 1;
#X connect 87 0 191 0;
#X connect 88 0 160 0;
#X connect 89 0 90 0;
#X connect 90 0 91 1;
#X connect 92 0 192 0;
#X connect 93 0 161 0;
#X connect 94 0 95 0;
#X connect 95 0 96 1;
#X connect 97 0 193 0;
#X connect 98 0 162 0;
#X connect 99 0 100 0;
#X connect 100 0 101 1;
#X connect 102 0 194 0;
#X connect 103 0 163 0;
#X connect 104 0 105 0;
#X connect 105 0 106 1;
#X connect 107 0 195 0;
#X connect 108 0 164 0;
#X connect 109 0 110 0;
#X connect 110 0 111 1;
#X connect 112 0 196 0;
#X connect 113 0 165 0;
#X connect 114 0 115 0;
#X connect 115 0 116 1;
#X connect 117 0 197 0;
#X connect 118 0 166 0;
#X connect 119 0 120 0;
#X connect 120 0 121 1;
#X connect 122 0 198 0;
#X connect 123 0 167 0;
#X connect 124 0 125 0;
#X connect 125 0 126 1;
#X connect 127 0 129 0;
#X connect 128 0 127 0;
#X connect 129 0 168 0;
#X connect 130 0 131 0;
#X connect 131 0 132 1;
#X connect 133 0 135 0;
#X connect 134 0 133 0;
#X connect 135 0 169 0;
#X connect 136 0 137 0;
#X connect 137 0 138 1;
#X connect 139 0 141 0;
#X connect 140 0 139 0;
#X connect 141 0 170 0;
#X connect 142 0 143 0;
#X connect 143 0 144 1;
#X connect 145 0 31 0;
#X connect 146 0 28 0;
#X connect 147 0 36 0;
#X connect 148 0 33 0;
#X connect 149 0 38 0;
#X connect 150 0 41 0;
#X connect 151 0 46 0;
#X connect 152 0 51 0;
#X connect 153 0 56 0;
#X connect 154 0 61 0;
#X connect 155 0 66 0;
#X connect 156 0 71 0;
#X connect 157 0 76 0;
#X connect 158 0 81 0;
#X connect 159 0 86 0;
#X connect 160 0 91 0;
#X connect 161 0 96 0;
#X connect 162 0 101 0;
#X connect 163 0 106 0;
#X connect 164 0 111 0;
#X connect 165 0 116 0;
#X connect 166 0 121 0;
#X connect 167 0 126 0;
#X connect 168 0 132 0;
#X connect 169 0 138 0;
#X connect 170 0 144 0;
#X connect 171 0 172 0;
#X connect 172 0 173 0;
#X connect 173 0 176 0;
#X connect 174 0 178 0;
#X connect 175 0 173 1;
#X connect 177 0 181 0;
#X connect 178 0 175 0;
#X connect 179 0 180 0;
#X connect 180 0 175 0;
#X connect 181 0 175 0;
#X connect 182 0 43 0;
#X connect 183 0 48 0;
#X connect 184 0 53 0;
#X connect 185 0 58 0;
#X connect 186 0 63 0;
#X connect 187 0 68 0;
#X connect 188 0 73 0;
#X connect 189 0 78 0;
#X connect 190 0 83 0;
#X connect 191 0 88 0;
#X connect 192 0 93 0;
#X connect 193 0 98 0;
#X connect 194 0 103 0;
#X connect 195 0 108 0;
#X connect 196 0 113 0;
#X connect 197 0 118 0;
#X connect 198 0 123 0;
#X connect 199 0 202 0;
#X connect 201 0 203 1;
#X connect 201 0 205 0;
#X connect 202 0 200 0;
#X connect 203 0 204 0;
#X connect 204 0 199 0;
#X connect 205 0 206 0;
#X connect 206 0 204 0;
#X connect 206 0 203 0;
#X connect 207 0 201 0;
#X restore 769 398 pd toggle;
#X connect 0 0 3 0;
#X connect 1 0 2 0;
#X connect 2 0 0 0;
#X connect 3 0 28 0;
#X connect 3 0 32 0;
#X connect 5 0 6 0;
#X connect 6 0 7 0;
#X connect 7 0 9 0;
#X connect 8 0 77 0;
#X connect 9 0 8 0;
#X connect 10 0 9 1;
#X connect 11 0 10 0;
#X connect 12 0 11 0;
#X connect 13 0 12 0;
#X connect 14 0 13 0;
#X connect 15 0 12 0;
#X connect 16 0 21 0;
#X connect 17 0 16 0;
#X connect 18 0 15 0;
#X connect 19 0 18 0;
#X connect 20 0 19 0;
#X connect 21 0 15 1;
#X connect 22 0 23 0;
#X connect 23 0 114 0;
#X connect 24 0 5 0;
#X connect 29 0 86 0;
#X connect 29 0 88 0;
#X connect 30 0 90 0;
#X connect 31 0 22 0;
#X connect 33 0 91 0;
#X connect 34 0 89 0;
#X connect 35 0 36 0;
#X connect 36 0 37 0;
#X connect 37 0 38 0;
#X connect 38 0 53 0;
#X connect 39 0 116 0;
#X connect 40 0 45 0;
#X connect 42 0 44 0;
#X connect 44 0 39 0;
#X connect 45 0 35 0;
#X connect 45 1 52 0;
#X connect 46 0 53 1;
#X connect 47 0 46 0;
#X connect 48 0 47 0;
#X connect 49 0 46 1;
#X connect 50 0 49 0;
#X connect 51 0 50 0;
#X connect 52 0 48 0;
#X connect 53 0 41 0;
#X connect 54 0 38 1;
#X connect 55 0 112 0;
#X connect 56 0 59 0;
#X connect 57 0 66 0;
#X connect 59 0 60 0;
#X connect 60 0 61 0;
#X connect 61 0 62 0;
#X connect 62 0 63 0;
#X connect 63 0 64 0;
#X connect 64 0 65 0;
#X connect 65 0 101 0;
#X connect 66 0 55 0;
#X connect 67 0 78 0;
#X connect 70 0 82 0;
#X connect 72 0 68 0;
#X connect 74 0 68 0;
#X connect 78 0 25 0;
#X connect 78 0 25 1;
#X connect 79 0 81 0;
#X connect 80 0 79 1;
#X connect 81 0 104 0;
#X connect 82 0 67 1;
#X connect 83 0 71 0;
#X connect 83 0 87 0;
#X connect 84 0 83 0;
#X connect 85 0 78 1;
#X connect 86 0 84 0;
#X connect 86 0 96 0;
#X connect 87 0 73 0;
#X connect 88 0 87 1;
#X connect 88 0 95 0;
#X connect 89 0 80 0;
#X connect 89 0 4 0;
#X connect 90 0 94 0;
#X connect 91 0 97 0;
#X connect 91 0 99 0;
#X connect 92 0 93 0;
#X connect 93 0 108 0;
#X connect 94 0 85 0;
#X connect 98 0 102 0;
#X connect 99 0 98 1;
#X connect 100 0 98 0;
#X connect 103 0 79 0;
#X connect 105 0 69 0;
#X connect 105 0 67 0;
#X connect 108 0 107 0;
#X connect 108 0 110 0;
#X connect 111 0 112 1;
#X connect 112 0 56 0;
#X connect 113 0 114 1;
#X connect 114 0 24 0;
#X connect 115 0 116 1;
#X connect 116 0 40 0;
#X connect 117 0 119 0;
#X connect 119 0 120 0;
#X connect 120 0 125 0;
#X connect 120 0 135 0;
#X connect 121 0 122 1;
#X connect 121 0 123 1;
#X connect 122 0 127 0;
#X connect 123 0 132 0;
#X connect 124 0 126 0;
#X connect 125 0 124 0;
#X connect 126 0 122 0;
#X connect 127 0 130 0;
#X connect 127 0 128 0;
#X connect 128 0 129 0;
#X connect 129 0 118 0;
#X connect 130 0 128 0;
#X connect 131 0 118 0;
#X connect 132 0 131 0;
#X connect 133 0 134 0;
#X connect 134 0 123 0;
#X connect 135 0 133 0;
#X connect 136 0 139 0;
#X connect 140 0 142 0;
