#N canvas 336 139 1920 989 12;
#X obj 11 113 oscparse;
#X msg 12 17 listen 212;
#X obj 12 63 netreceive -u -b;
#X obj 10 153 list trim;
#X obj 39 438 route slider1;
#X obj 154 201 hsl 162 19 0 1000 0 0 empty empty empty -2 -10 0 12 #fcfcfc #000000 #000000 0 1;
#X msg 1121 302 1 \, 0 100;
#X obj 1121 335 line~;
#X obj 1124 367 pow~ 4;
#X obj 1122 431 *~ 4;
#X obj 1123 399 *~;
#X obj 1223 360 hip~ 8000;
#X obj 1223 331 hip~ 8000;
#X obj 1222 305 hip~ 8000;
#X obj 1282 266 /~ 4;
#X obj 1284 228 noise~;
#X obj 1217 242 +~;
#X obj 1276 158 *~ 2;
#X obj 1278 126 phasor~ 800;
#X obj 1216 206 -~ 1;
#X obj 1216 172 *~ 2;
#X obj 1187 127 phasor~ 350;
#X obj 1275 188 -~ 1;
#X obj 1057 170 route toggle1;
#X obj 1074 199 tgl 19 0 empty empty empty 0 -10 0 12 #fcfcfc #000000 #000000 0 1;
#X obj 1090 234 metro 500;
#X obj 1090 258 bng 19 250 50 0 empty empty empty 0 -10 0 12 #fcfcfc #000000 #000000;
#X obj 278 557 osc~ 440;
#X floatatom 345 539 5 0 0 0 - - - 0;
#X obj 345 611 *~ 0.75;
#X obj 345 508 * 2;
#X obj 345 573 osc~;
#X floatatom 271 472 5 0 0 0 - - - 0;
#X floatatom 405 543 5 0 0 0 - - - 0;
#X obj 405 577 osc~;
#X floatatom 462 549 5 0 0 0 - - - 0;
#X obj 462 583 osc~;
#X obj 405 507 * 3;
#X obj 462 505 * 4;
#X obj 405 615 *~ 0.5;
#X obj 462 621 *~ 0.25;
#X obj 278 668 *~ 0.1;
#X obj 250 397 route slider2;
#X obj 252 432 * 1000;
#X obj 542 166 route slider3;
#X obj 462 263 dac~;
#X obj 282 717 throw~ \$0-output;
#X text 564 116 VOLUMEN;
#X text 260 373 X;
#X text 1070 140 SNARE;
#X obj 772 290 route slider4;
#X obj 8 224 send signal;
#X obj 768 261 receive signal;
#X obj 541 136 receive signal;
#X obj 1031 110 receive signal;
#X obj 39 194 print;
#X obj 227 338 receive signal;
#X obj 33 387 receive signal;
#X msg 1523 347 1 \, 0 100;
#X obj 1523 380 line~;
#X obj 1526 412 pow~ 4;
#X obj 1537 460 *~;
#X obj 1520 199 tgl 19 0 empty empty empty 0 -10 0 12 #fcfcfc #000000 #000000 0 1;
#X obj 1530 233 metro 500;
#X obj 1532 261 bng 19 250 50 0 empty empty empty 0 -10 0 12 #fcfcfc #000000 #000000;
#X obj 1540 545 throw~ \$0-output;
#X obj 1482 106 receive signal;
#X text 1516 140 DRUM;
#X obj 1503 170 route toggle2;
#X obj 1556 293 t b b;
#X obj 1673 429 *~;
#X obj 1666 394 pow~ 4;
#X obj 1660 357 line~;
#X obj 1744 393 bp~ 5000 2;
#X obj 1746 360 hip~ 3000;
#X obj 1745 321 noise~;
#X msg 1655 327 1 \, 0 200;
#X obj 1539 498 +~;
#X obj 1589 415 osc~ 200;
#X obj 1277 666 tgl 19 0 empty empty empty 0 -10 0 12 #fcfcfc #000000 #000000 0 1;
#X obj 1287 700 metro 500;
#X obj 1289 728 bng 19 250 50 0 empty empty empty 0 -10 0 12 #fcfcfc #000000 #000000;
#X obj 1239 573 receive signal;
#X text 1273 607 X;
#X msg 1293 760 0 \, 1 200;
#X obj 1293 784 line~;
#X obj 1293 808 sqrt~;
#X obj 1293 832 *~ 20;
#X obj 1293 856 -~ 0.25;
#X obj 1293 880 cos~;
#X obj 1293 904 lop~ 1000;
#X obj 1293 928 throw~ \$0-output;
#X obj 1260 637 route toggle3;
#X obj 452 160 +~;
#X obj 611 470 delwrite~ eco 2000;
#X obj 468 48 throw~ $delayIn;
#X obj 468 81 catch~ $delayOut;
#X obj 780 490 throw~ $delayOut;
#X obj 579 394 catch~ $delayIn;
#X obj 833 456 throw~ $delayFeedback;
#X obj 615 427 catch~ $delayFeedback;
#X text 772 228 DELAY/ECO;
#X text 32 324 DISTORTION;
#X obj 1120 465 throw~ \$0-output;
#X obj 21 613 throw~ \$1-output;
#X obj 446 8 catch~ \$1-output;
#X obj 470 225 *~;
#X obj 23 539 *~ 1;
#X obj 50 506 + 0.1;
#X obj 23 572 clip~ -0.3 0.3;
#X obj 12 355 catch~ \$0-output;
#X obj 468 120 *~ 1;
#X obj 771 380 delread~ eco;
#X obj 773 333 * 1000;
#X obj 542 197 * 5;
#X obj 829 417 *~ 0.5;
#X connect 0 0 3 0;
#X connect 1 0 2 0;
#X connect 2 0 0 0;
#X connect 3 0 51 0;
#X connect 3 0 55 0;
#X connect 4 0 108 0;
#X connect 6 0 7 0;
#X connect 7 0 8 0;
#X connect 8 0 10 0;
#X connect 9 0 103 0;
#X connect 10 0 9 0;
#X connect 11 0 10 1;
#X connect 12 0 11 0;
#X connect 13 0 12 0;
#X connect 14 0 13 0;
#X connect 15 0 14 0;
#X connect 16 0 13 0;
#X connect 17 0 22 0;
#X connect 18 0 17 0;
#X connect 19 0 16 0;
#X connect 20 0 19 0;
#X connect 21 0 20 0;
#X connect 22 0 16 1;
#X connect 23 0 24 0;
#X connect 24 0 25 0;
#X connect 25 0 26 0;
#X connect 26 0 6 0;
#X connect 27 0 41 0;
#X connect 28 0 31 0;
#X connect 29 0 41 0;
#X connect 30 0 28 0;
#X connect 31 0 29 0;
#X connect 32 0 27 0;
#X connect 32 0 30 0;
#X connect 32 0 37 0;
#X connect 32 0 38 0;
#X connect 33 0 34 0;
#X connect 34 0 39 0;
#X connect 35 0 36 0;
#X connect 36 0 40 0;
#X connect 37 0 33 0;
#X connect 38 0 35 0;
#X connect 39 0 41 0;
#X connect 40 0 41 0;
#X connect 41 0 46 0;
#X connect 42 0 43 0;
#X connect 43 0 32 0;
#X connect 44 0 114 0;
#X connect 50 0 113 0;
#X connect 52 0 50 0;
#X connect 53 0 44 0;
#X connect 54 0 23 0;
#X connect 56 0 42 0;
#X connect 57 0 4 0;
#X connect 58 0 59 0;
#X connect 59 0 60 0;
#X connect 60 0 61 0;
#X connect 61 0 77 0;
#X connect 62 0 63 0;
#X connect 63 0 64 0;
#X connect 64 0 69 0;
#X connect 66 0 68 0;
#X connect 68 0 62 0;
#X connect 69 0 58 0;
#X connect 69 1 76 0;
#X connect 70 0 77 1;
#X connect 71 0 70 0;
#X connect 72 0 71 0;
#X connect 73 0 70 1;
#X connect 74 0 73 0;
#X connect 75 0 74 0;
#X connect 76 0 72 0;
#X connect 77 0 65 0;
#X connect 78 0 61 1;
#X connect 79 0 80 0;
#X connect 80 0 81 0;
#X connect 81 0 84 0;
#X connect 82 0 92 0;
#X connect 84 0 85 0;
#X connect 85 0 86 0;
#X connect 86 0 87 0;
#X connect 87 0 88 0;
#X connect 88 0 89 0;
#X connect 89 0 90 0;
#X connect 90 0 91 0;
#X connect 92 0 79 0;
#X connect 93 0 106 0;
#X connect 96 0 111 0;
#X connect 98 0 94 0;
#X connect 100 0 94 0;
#X connect 105 0 95 0;
#X connect 105 0 93 0;
#X connect 106 0 45 0;
#X connect 106 0 45 1;
#X connect 107 0 109 0;
#X connect 108 0 107 1;
#X connect 109 0 104 0;
#X connect 110 0 107 0;
#X connect 111 0 93 1;
#X connect 112 0 97 0;
#X connect 112 0 115 0;
#X connect 113 0 112 0;
#X connect 114 0 106 1;
#X connect 115 0 99 0;
