#N canvas 646 0 1920 989 12;
#X obj 11 113 oscparse;
#X msg 12 17 listen 212;
#X obj 12 63 netreceive -u -b;
#X obj 10 153 list trim;
#X obj 308 385 hsl 162 19 0 1 0 0 empty empty empty -2 -10 0 12 #fcfcfc #000000 #000000 0 1;
#X msg 1127 231 1 \, 0 100;
#X obj 1127 264 line~;
#X obj 1130 296 pow~ 4;
#X obj 1128 360 *~ 4;
#X obj 1129 328 *~;
#X obj 1229 289 hip~ 8000;
#X obj 1229 260 hip~ 8000;
#X obj 1228 234 hip~ 8000;
#X obj 1288 195 /~ 4;
#X obj 1290 157 noise~;
#X obj 1223 171 +~;
#X obj 1282 87 *~ 2;
#X obj 1284 55 phasor~ 800;
#X obj 1222 135 -~ 1;
#X obj 1222 101 *~ 2;
#X obj 1193 56 phasor~ 350;
#X obj 1281 117 -~ 1;
#X obj 1063 99 route toggle1;
#X obj 1080 128 tgl 19 0 empty empty empty 0 -10 0 12 #fcfcfc #000000 #000000 0 1;
#X obj 1096 187 bng 19 250 50 0 empty empty empty 0 -10 0 12 #fcfcfc #000000 #000000;
#X obj 22 532 dac~;
#X text 124 385 VOLUMEN;
#X text 1079 35 SNARE;
#X obj 8 224 send signal;
#X obj 603 44 receive signal;
#X obj 101 405 receive signal;
#X obj 1055 61 receive signal;
#X obj 39 194 print;
#X obj 140 617 receive signal;
#X obj 300 301 receive signal;
#X msg 1434 242 1 \, 0 100;
#X obj 1434 275 line~;
#X obj 1437 307 pow~ 4;
#X obj 1448 355 *~;
#X obj 1431 94 tgl 19 0 empty empty empty 0 -10 0 12 #fcfcfc #000000 #000000 0 1;
#X obj 1443 156 bng 19 250 50 0 empty empty empty 0 -10 0 12 #fcfcfc #000000 #000000;
#X obj 1451 440 throw~ \$0-output;
#X obj 1408 35 receive signal;
#X text 1440 9 DRUM;
#X obj 1414 65 route toggle2;
#X obj 1467 188 t b b;
#X obj 1584 324 *~;
#X obj 1577 289 pow~ 4;
#X obj 1571 252 line~;
#X obj 1655 288 bp~ 5000 2;
#X obj 1657 255 hip~ 3000;
#X obj 1656 216 noise~;
#X msg 1566 222 1 \, 0 200;
#X obj 1450 393 +~;
#X obj 1500 310 osc~ 200;
#X obj 1782 156 tgl 19 0 empty empty empty 0 -10 0 12 #fcfcfc #000000 #000000 0 1;
#X obj 1794 220 bng 19 250 50 0 empty empty empty 0 -10 0 12 #fcfcfc #000000 #000000;
#X obj 1759 96 receive signal;
#X msg 1798 252 0 \, 1 200;
#X obj 1798 276 line~;
#X obj 1798 300 sqrt~;
#X obj 1798 324 *~ 20;
#X obj 1798 348 -~ 0.25;
#X obj 1798 372 cos~;
#X obj 1798 396 lop~ 1000;
#X obj 1765 129 route toggle3;
#X obj 12 429 +~;
#X obj 413 83 delwrite~ eco 2000;
#X obj 28 317 throw~ $delayIn;
#X obj 28 350 catch~ $delayOut;
#X obj 627 326 throw~ $delayOut;
#X obj 381 7 catch~ $delayIn;
#X obj 717 292 throw~ $delayFeedback;
#X obj 417 40 catch~ $delayFeedback;
#X text 607 16 DELAY/ECO;
#X text 299 238 DISTORTION;
#X obj 1126 394 throw~ \$0-output;
#X obj 30 494 *~;
#X obj 290 453 *~ 1;
#X obj 317 420 + 0.1;
#X obj 290 486 clip~ -0.3 0.3;
#X obj 28 389 *~ 1;
#X obj 614 220 delread~ eco;
#X obj 613 189 * 1000;
#X obj 603 96 route slider2Dx;
#X obj 713 254 *~;
#X obj 739 93 route slider2Dy;
#X obj 306 352 route slider2;
#X obj 102 435 route slider1;
#X obj 99 660 route slider3;
#X obj 357 625 receive signal;
#X obj 359 656 route slider4;
#X obj 97 468 hsl 162 19 0 1 0 0 empty empty empty -2 -10 0 12 #fcfcfc #000000 #000000 0 1;
#X obj 740 184 hsl 162 19 0 1 0 0 empty empty empty -2 -10 0 12 #fcfcfc #000000 #000000 0 1;
#X obj 549 143 hsl 162 19 0 1 0 0 empty empty empty -2 -10 0 12 #fcfcfc #000000 #000000 0 1;
#X obj 82 689 hsl 162 19 0 1 0 0 empty empty empty -2 -10 0 12 #fcfcfc #000000 #000000 0 1;
#X obj 18 728 *~;
#X obj 64 722 osc~;
#X obj 13 616 catch~ \$0-output;
#X obj 1797 424 throw~ \$0-output;
#X obj 17 773 throw~ \$1-output;
#X obj 279 269 catch~ \$1-output;
#X obj 288 527 throw~ \$2-output;
#X obj 6 277 catch~ \$2-output;
#X text 42 591 FREQ OSC;
#X obj 365 719 hsl 162 19 0 1000 0 0 empty empty empty -2 -10 0 12 #fcfcfc #000000 #000000 0 1;
#X obj 361 685 * 1000;
#X text 386 597 METRO;
#X obj 363 748 s metro;
#X obj 1850 159 r metro;
#X obj 1792 192 metro 100;
#X obj 1155 129 r metro;
#X obj 1096 163 metro 100;
#X obj 1501 94 r metro;
#X obj 1441 128 metro 100;
#X obj 648 487 receive signal;
#X obj 693 904 throw~ \$0-output;
#X obj 652 520 route button1;
#X obj 656 544 bng 16 250 50 0 empty empty empty 0 -8 0 10 #fcfcfc #000000 #000000;
#X obj 675 648 noise~;
#X obj 611 677 *~;
#X obj 740 723 *~;
#X obj 648 598 vline~;
#X msg 649 574 1 0 \, 0 11 0 \, 1 0 11 \, 0 12 11 \, 1 0 23 \, 0 8 23 \, 1 0 31 \, 0 50 31, f 62;
#X obj 648 620 pow~ 3;
#X obj 613 712 *~ 0.7;
#X obj 620 789 lop~ 3000;
#X obj 622 818 hip~ 600;
#X obj 641 749 bp~ 1000 5;
#X obj 739 801 *~ 0.4;
#X obj 744 762 bp~ 2200 3;
#X obj 752 635 vline~;
#X obj 752 657 pow~ 1.8;
#X msg 752 613 1 36 \, 0 440 36;
#X obj 920 378 receive signal;
#X text 683 456 CLAP;
#X text 943 350 Buttons;
#N canvas 93 109 1244 932 button 0;
#X obj 37 37 inlet;
#X obj 1392 518 bng 16 250 50 0 empty empty empty 0 -8 0 10 #fcfcfc #000000 #000000;
#X obj 1395 655 noteout 1;
#X msg 1397 547 65;
#X msg 1448 546 92;
#X msg 1439 606 100;
#X obj 1448 578 loadbang;
#X obj 1402 528 bng 16 250 50 0 empty empty empty 0 -8 0 10 #fcfcfc #000000 #000000;
#X obj 1405 665 noteout 1;
#X msg 1407 557 65;
#X msg 1458 556 92;
#X msg 1449 616 100;
#X obj 1458 588 loadbang;
#X obj 1412 538 bng 16 250 50 0 empty empty empty 0 -8 0 10 #fcfcfc #000000 #000000;
#X obj 1415 675 noteout 1;
#X msg 1417 567 65;
#X msg 1468 566 92;
#X msg 1459 626 100;
#X obj 1468 598 loadbang;
#X obj 1555 640 bng 16 250 50 0 empty empty empty 0 -8 0 10 #fcfcfc #000000 #000000;
#X obj 1558 777 noteout 1;
#X msg 1560 669 65;
#X msg 1611 668 92;
#X msg 1602 728 100;
#X obj 1611 700 loadbang;
#X obj 159 71 route gridButton1;
#X obj 37 61 s num;
#X obj 159 43 r num;
#X obj 159 100 bng 19 250 50 0 empty empty empty 0 -10 0 12 #fcfcfc #000000 #000000;
#X msg 159 124 36;
#X obj 335 35 r num;
#X obj 335 93 bng 19 250 50 0 empty empty empty 0 -10 0 12 #fcfcfc #000000 #000000;
#X obj 504 38 r num;
#X obj 504 95 bng 19 250 50 0 empty empty empty 0 -10 0 12 #fcfcfc #000000 #000000;
#X obj 681 39 r num;
#X obj 681 96 bng 19 250 50 0 empty empty empty 0 -10 0 12 #fcfcfc #000000 #000000;
#X obj 858 38 r num;
#X obj 858 95 bng 19 250 50 0 empty empty empty 0 -10 0 12 #fcfcfc #000000 #000000;
#X obj 159 231 r num;
#X obj 159 288 bng 19 250 50 0 empty empty empty 0 -10 0 12 #fcfcfc #000000 #000000;
#X obj 334 227 r num;
#X obj 334 284 bng 19 250 50 0 empty empty empty 0 -10 0 12 #fcfcfc #000000 #000000;
#X obj 513 230 r num;
#X obj 513 287 bng 19 250 50 0 empty empty empty 0 -10 0 12 #fcfcfc #000000 #000000;
#X obj 691 227 r num;
#X obj 691 284 bng 19 250 50 0 empty empty empty 0 -10 0 12 #fcfcfc #000000 #000000;
#X obj 866 228 r num;
#X obj 866 285 bng 19 250 50 0 empty empty empty 0 -10 0 12 #fcfcfc #000000 #000000;
#X obj 166 419 r num;
#X obj 166 476 bng 19 250 50 0 empty empty empty 0 -10 0 12 #fcfcfc #000000 #000000;
#X obj 341 415 r num;
#X obj 341 472 bng 19 250 50 0 empty empty empty 0 -10 0 12 #fcfcfc #000000 #000000;
#X obj 520 418 r num;
#X obj 520 475 bng 19 250 50 0 empty empty empty 0 -10 0 12 #fcfcfc #000000 #000000;
#X obj 698 415 r num;
#X obj 698 472 bng 19 250 50 0 empty empty empty 0 -10 0 12 #fcfcfc #000000 #000000;
#X obj 873 416 r num;
#X obj 873 473 bng 19 250 50 0 empty empty empty 0 -10 0 12 #fcfcfc #000000 #000000;
#X obj 158 615 r num;
#X obj 158 672 bng 19 250 50 0 empty empty empty 0 -10 0 12 #fcfcfc #000000 #000000;
#X obj 333 611 r num;
#X obj 333 668 bng 19 250 50 0 empty empty empty 0 -10 0 12 #fcfcfc #000000 #000000;
#X obj 512 614 r num;
#X obj 512 671 bng 19 250 50 0 empty empty empty 0 -10 0 12 #fcfcfc #000000 #000000;
#X obj 690 611 r num;
#X obj 690 668 bng 19 250 50 0 empty empty empty 0 -10 0 12 #fcfcfc #000000 #000000;
#X obj 703 769 noteout 1;
#X obj 865 612 r num;
#X obj 865 669 bng 19 250 50 0 empty empty empty 0 -10 0 12 #fcfcfc #000000 #000000;
#X obj 166 816 r num;
#X obj 166 873 bng 19 250 50 0 empty empty empty 0 -10 0 12 #fcfcfc #000000 #000000;
#X obj 163 1016 noteout 1;
#X obj 341 812 r num;
#X obj 341 869 bng 19 250 50 0 empty empty empty 0 -10 0 12 #fcfcfc #000000 #000000;
#X obj 520 815 r num;
#X obj 520 872 bng 19 250 50 0 empty empty empty 0 -10 0 12 #fcfcfc #000000 #000000;
#X obj 698 812 r num;
#X obj 698 869 bng 19 250 50 0 empty empty empty 0 -10 0 12 #fcfcfc #000000 #000000;
#X msg 335 116 38;
#X obj 335 63 route gridButton2;
#X msg 504 119 40;
#X obj 504 66 route gridButton3;
#X obj 681 67 route gridButton4;
#X msg 681 120 41;
#X msg 858 119 43;
#X msg 159 312 45;
#X msg 334 308 47;
#X msg 513 311 48;
#X msg 691 308 50;
#X msg 866 309 52;
#X msg 166 500 53;
#X msg 341 496 55;
#X msg 520 499 57;
#X msg 698 496 59;
#X msg 873 497 60;
#X msg 158 696 62;
#X msg 333 692 64;
#X msg 512 695 65;
#X msg 690 692 67;
#X msg 865 693 69;
#X msg 166 897 71;
#X obj 957 831 bng 19 250 50 0 empty empty empty 0 -10 0 12 #fcfcfc #000000 #000000;
#X msg 957 870 76;
#X obj 994 901 +;
#X obj 1010 791 bng 19 250 50 0 empty empty empty 0 -10 0 12 #fcfcfc #000000 #000000;
#X floatatom 1030 872 5 0 0 0 - - - 0;
#X floatatom 994 933 5 0 0 0 - - - 0;
#X obj 1062 789 bng 19 250 50 0 empty empty empty 0 -10 0 12 #fcfcfc #000000 #000000;
#X msg 1013 825 12;
#X obj 1116 789 bng 19 250 50 0 empty empty empty 0 -10 0 12 #fcfcfc #000000 #000000;
#X msg 1119 823 -12;
#X msg 1065 823 0;
#X obj 858 66 route gridButton5;
#X obj 159 259 route gridButton6;
#X obj 334 255 route gridButton7;
#X obj 513 258 route gridButton8;
#X obj 691 255 route gridButton9;
#X obj 866 256 route gridButton10;
#X obj 166 447 route gridButton11;
#X obj 341 443 route gridButton12;
#X obj 520 446 route gridButton13;
#X obj 698 443 route gridButton14;
#X obj 873 444 route gridButton15;
#X obj 158 643 route gridButton16;
#X obj 333 639 route gridButton17;
#X obj 512 642 route gridButton18;
#X obj 690 639 route gridButton19;
#X obj 865 640 route gridButton20;
#X obj 166 844 route gridButton21;
#X obj 783 718 r vol;
#X floatatom 783 742 5 0 0 0 - - - 0;
#X obj 222 964 r vol;
#X floatatom 222 988 5 0 0 0 - - - 0;
#X obj 341 840 route gridButton22;
#X obj 520 843 route gridButton23;
#X obj 698 840 route gridButton24;
#X msg 341 893 -12;
#X msg 521 924 0;
#X msg 698 893 12;
#X obj 341 917 s oct;
#X obj 520 950 s oct;
#X obj 698 917 s oct;
#X obj 218 874 r oct;
#X obj 200 930 +;
#X floatatom 163 964 5 0 0 0 - - - 0;
#X obj 563 881 loadbang;
#X floatatom 218 898 5 0 0 0 - - - 0;
#X obj 742 668 r oct;
#X obj 724 724 +;
#X floatatom 742 692 5 0 0 0 - - - 0;
#X obj 877 771 noteout 1;
#X obj 957 720 r vol;
#X floatatom 957 744 5 0 0 0 - - - 0;
#X obj 916 670 r oct;
#X obj 898 726 +;
#X floatatom 916 694 5 0 0 0 - - - 0;
#X obj 529 768 noteout 1;
#X obj 609 717 r vol;
#X floatatom 609 741 5 0 0 0 - - - 0;
#X obj 568 667 r oct;
#X obj 550 723 +;
#X floatatom 568 691 5 0 0 0 - - - 0;
#X obj 341 770 noteout 1;
#X obj 421 719 r vol;
#X floatatom 421 743 5 0 0 0 - - - 0;
#X obj 380 669 r oct;
#X obj 362 725 +;
#X floatatom 380 693 5 0 0 0 - - - 0;
#X obj 174 772 noteout 1;
#X obj 254 721 r vol;
#X floatatom 254 745 5 0 0 0 - - - 0;
#X obj 213 671 r oct;
#X obj 195 727 +;
#X floatatom 213 695 5 0 0 0 - - - 0;
#X obj 181 580 noteout 1;
#X obj 261 529 r vol;
#X floatatom 261 553 5 0 0 0 - - - 0;
#X obj 220 479 r oct;
#X obj 202 535 +;
#X floatatom 220 503 5 0 0 0 - - - 0;
#X obj 350 573 noteout 1;
#X obj 430 522 r vol;
#X floatatom 430 546 5 0 0 0 - - - 0;
#X obj 389 472 r oct;
#X obj 371 528 +;
#X floatatom 389 496 5 0 0 0 - - - 0;
#X obj 534 580 noteout 1;
#X obj 614 529 r vol;
#X floatatom 614 553 5 0 0 0 - - - 0;
#X obj 573 479 r oct;
#X obj 555 535 +;
#X floatatom 573 503 5 0 0 0 - - - 0;
#X obj 706 569 noteout 1;
#X obj 786 518 r vol;
#X floatatom 786 542 5 0 0 0 - - - 0;
#X obj 745 468 r oct;
#X obj 727 524 +;
#X floatatom 745 492 5 0 0 0 - - - 0;
#X obj 879 571 noteout 1;
#X obj 959 520 r vol;
#X floatatom 959 544 5 0 0 0 - - - 0;
#X obj 918 470 r oct;
#X obj 900 526 +;
#X floatatom 918 494 5 0 0 0 - - - 0;
#X obj 176 388 noteout 1;
#X obj 256 337 r vol;
#X floatatom 256 361 5 0 0 0 - - - 0;
#X obj 215 287 r oct;
#X obj 197 343 +;
#X floatatom 215 311 5 0 0 0 - - - 0;
#X obj 341 381 noteout 1;
#X obj 421 330 r vol;
#X floatatom 421 354 5 0 0 0 - - - 0;
#X obj 380 280 r oct;
#X obj 362 336 +;
#X floatatom 380 304 5 0 0 0 - - - 0;
#X obj 526 386 noteout 1;
#X obj 606 335 r vol;
#X floatatom 606 359 5 0 0 0 - - - 0;
#X obj 565 285 r oct;
#X obj 547 341 +;
#X floatatom 565 309 5 0 0 0 - - - 0;
#X obj 693 383 noteout 1;
#X obj 773 332 r vol;
#X floatatom 773 356 5 0 0 0 - - - 0;
#X obj 732 282 r oct;
#X obj 714 338 +;
#X floatatom 732 306 5 0 0 0 - - - 0;
#X obj 877 386 noteout 1;
#X obj 957 335 r vol;
#X floatatom 957 359 5 0 0 0 - - - 0;
#X obj 916 285 r oct;
#X obj 898 341 +;
#X floatatom 916 309 5 0 0 0 - - - 0;
#X obj 174 195 noteout 1;
#X obj 254 144 r vol;
#X floatatom 254 168 5 0 0 0 - - - 0;
#X obj 213 94 r oct;
#X obj 195 150 +;
#X floatatom 213 118 5 0 0 0 - - - 0;
#X obj 348 192 noteout 1;
#X obj 428 141 r vol;
#X floatatom 428 165 5 0 0 0 - - - 0;
#X obj 387 91 r oct;
#X obj 369 147 +;
#X floatatom 387 115 5 0 0 0 - - - 0;
#X obj 517 195 noteout 1;
#X obj 597 144 r vol;
#X floatatom 597 168 5 0 0 0 - - - 0;
#X obj 556 94 r oct;
#X obj 538 150 +;
#X floatatom 556 118 5 0 0 0 - - - 0;
#X obj 693 192 noteout 1;
#X obj 773 141 r vol;
#X floatatom 773 165 5 0 0 0 - - - 0;
#X obj 732 91 r oct;
#X obj 714 147 +;
#X floatatom 732 115 5 0 0 0 - - - 0;
#X obj 866 192 noteout 1;
#X obj 946 141 r vol;
#X floatatom 946 165 5 0 0 0 - - - 0;
#X obj 905 91 r oct;
#X obj 887 147 +;
#X floatatom 905 115 5 0 0 0 - - - 0;
#X connect 0 0 26 0;
#X connect 1 0 3 0;
#X connect 1 0 4 0;
#X connect 3 0 2 0;
#X connect 4 0 2 0;
#X connect 5 0 2 1;
#X connect 6 0 5 0;
#X connect 7 0 9 0;
#X connect 7 0 10 0;
#X connect 9 0 8 0;
#X connect 10 0 8 0;
#X connect 11 0 8 1;
#X connect 12 0 11 0;
#X connect 13 0 15 0;
#X connect 13 0 16 0;
#X connect 15 0 14 0;
#X connect 16 0 14 0;
#X connect 17 0 14 1;
#X connect 18 0 17 0;
#X connect 19 0 21 0;
#X connect 19 0 22 0;
#X connect 21 0 20 0;
#X connect 22 0 20 0;
#X connect 23 0 20 1;
#X connect 24 0 23 0;
#X connect 25 0 28 0;
#X connect 27 0 25 0;
#X connect 28 0 29 0;
#X connect 29 0 238 0;
#X connect 30 0 79 0;
#X connect 31 0 78 0;
#X connect 32 0 81 0;
#X connect 33 0 80 0;
#X connect 34 0 82 0;
#X connect 35 0 83 0;
#X connect 36 0 112 0;
#X connect 37 0 84 0;
#X connect 38 0 113 0;
#X connect 39 0 85 0;
#X connect 40 0 114 0;
#X connect 41 0 86 0;
#X connect 42 0 115 0;
#X connect 43 0 87 0;
#X connect 44 0 116 0;
#X connect 45 0 88 0;
#X connect 46 0 117 0;
#X connect 47 0 89 0;
#X connect 48 0 118 0;
#X connect 49 0 90 0;
#X connect 50 0 119 0;
#X connect 51 0 91 0;
#X connect 52 0 120 0;
#X connect 53 0 92 0;
#X connect 54 0 121 0;
#X connect 55 0 93 0;
#X connect 56 0 122 0;
#X connect 57 0 94 0;
#X connect 58 0 123 0;
#X connect 59 0 95 0;
#X connect 60 0 124 0;
#X connect 61 0 96 0;
#X connect 62 0 125 0;
#X connect 63 0 97 0;
#X connect 64 0 126 0;
#X connect 65 0 98 0;
#X connect 67 0 127 0;
#X connect 68 0 99 0;
#X connect 69 0 128 0;
#X connect 70 0 100 0;
#X connect 72 0 133 0;
#X connect 73 0 136 0;
#X connect 74 0 134 0;
#X connect 75 0 137 0;
#X connect 76 0 135 0;
#X connect 77 0 138 0;
#X connect 78 0 244 0;
#X connect 79 0 31 0;
#X connect 80 0 250 0;
#X connect 81 0 33 0;
#X connect 82 0 35 0;
#X connect 83 0 256 0;
#X connect 84 0 262 0;
#X connect 85 0 208 0;
#X connect 86 0 214 0;
#X connect 87 0 220 0;
#X connect 88 0 226 0;
#X connect 89 0 232 0;
#X connect 90 0 178 0;
#X connect 91 0 184 0;
#X connect 92 0 190 0;
#X connect 93 0 196 0;
#X connect 94 0 202 0;
#X connect 95 0 172 0;
#X connect 96 0 166 0;
#X connect 97 0 160 0;
#X connect 98 0 148 0;
#X connect 99 0 154 0;
#X connect 100 0 143 0;
#X connect 101 0 102 0;
#X connect 102 0 103 0;
#X connect 103 0 106 0;
#X connect 104 0 108 0;
#X connect 105 0 103 1;
#X connect 107 0 111 0;
#X connect 108 0 105 0;
#X connect 109 0 110 0;
#X connect 110 0 105 0;
#X connect 111 0 105 0;
#X connect 112 0 37 0;
#X connect 113 0 39 0;
#X connect 114 0 41 0;
#X connect 115 0 43 0;
#X connect 116 0 45 0;
#X connect 117 0 47 0;
#X connect 118 0 49 0;
#X connect 119 0 51 0;
#X connect 120 0 53 0;
#X connect 121 0 55 0;
#X connect 122 0 57 0;
#X connect 123 0 59 0;
#X connect 124 0 61 0;
#X connect 125 0 63 0;
#X connect 126 0 65 0;
#X connect 127 0 68 0;
#X connect 128 0 70 0;
#X connect 129 0 130 0;
#X connect 130 0 66 1;
#X connect 131 0 132 0;
#X connect 132 0 71 1;
#X connect 133 0 73 0;
#X connect 134 0 75 0;
#X connect 135 0 77 0;
#X connect 136 0 139 0;
#X connect 137 0 140 0;
#X connect 138 0 141 0;
#X connect 142 0 146 0;
#X connect 143 0 144 0;
#X connect 144 0 71 0;
#X connect 145 0 137 0;
#X connect 146 0 143 1;
#X connect 147 0 149 0;
#X connect 148 0 66 0;
#X connect 149 0 148 1;
#X connect 151 0 152 0;
#X connect 152 0 150 1;
#X connect 153 0 155 0;
#X connect 154 0 150 0;
#X connect 155 0 154 1;
#X connect 157 0 158 0;
#X connect 158 0 156 1;
#X connect 159 0 161 0;
#X connect 160 0 156 0;
#X connect 161 0 160 1;
#X connect 163 0 164 0;
#X connect 164 0 162 1;
#X connect 165 0 167 0;
#X connect 166 0 162 0;
#X connect 167 0 166 1;
#X connect 169 0 170 0;
#X connect 170 0 168 1;
#X connect 171 0 173 0;
#X connect 172 0 168 0;
#X connect 173 0 172 1;
#X connect 175 0 176 0;
#X connect 176 0 174 1;
#X connect 177 0 179 0;
#X connect 178 0 174 0;
#X connect 179 0 178 1;
#X connect 181 0 182 0;
#X connect 182 0 180 1;
#X connect 183 0 185 0;
#X connect 184 0 180 0;
#X connect 185 0 184 1;
#X connect 187 0 188 0;
#X connect 188 0 186 1;
#X connect 189 0 191 0;
#X connect 190 0 186 0;
#X connect 191 0 190 1;
#X connect 193 0 194 0;
#X connect 194 0 192 1;
#X connect 195 0 197 0;
#X connect 196 0 192 0;
#X connect 197 0 196 1;
#X connect 199 0 200 0;
#X connect 200 0 198 1;
#X connect 201 0 203 0;
#X connect 202 0 198 0;
#X connect 203 0 202 1;
#X connect 205 0 206 0;
#X connect 206 0 204 1;
#X connect 207 0 209 0;
#X connect 208 0 204 0;
#X connect 209 0 208 1;
#X connect 211 0 212 0;
#X connect 212 0 210 1;
#X connect 213 0 215 0;
#X connect 214 0 210 0;
#X connect 215 0 214 1;
#X connect 217 0 218 0;
#X connect 218 0 216 1;
#X connect 219 0 221 0;
#X connect 220 0 216 0;
#X connect 221 0 220 1;
#X connect 223 0 224 0;
#X connect 224 0 222 1;
#X connect 225 0 227 0;
#X connect 226 0 222 0;
#X connect 227 0 226 1;
#X connect 229 0 230 0;
#X connect 230 0 228 1;
#X connect 231 0 233 0;
#X connect 232 0 228 0;
#X connect 233 0 232 1;
#X connect 235 0 236 0;
#X connect 236 0 234 1;
#X connect 237 0 239 0;
#X connect 238 0 234 0;
#X connect 239 0 238 1;
#X connect 241 0 242 0;
#X connect 242 0 240 1;
#X connect 243 0 245 0;
#X connect 244 0 240 0;
#X connect 245 0 244 1;
#X connect 247 0 248 0;
#X connect 248 0 246 1;
#X connect 249 0 251 0;
#X connect 250 0 246 0;
#X connect 251 0 250 1;
#X connect 253 0 254 0;
#X connect 254 0 252 1;
#X connect 255 0 257 0;
#X connect 256 0 252 0;
#X connect 257 0 256 1;
#X connect 259 0 260 0;
#X connect 260 0 258 1;
#X connect 261 0 263 0;
#X connect 262 0 258 0;
#X connect 263 0 262 1;
#X restore 920 402 pd button;
#X obj 769 374 receive signal;
#X text 792 346 Toggles;
#X obj 100 561 s vol;
#X obj 100 502 * 1.5;
#X obj 100 526 * 200;
#X text 1800 66 BASS;
#N canvas 306 96 1244 809 toggle 0;
#X obj 1392 518 bng 16 250 50 0 empty empty empty 0 -8 0 10 #fcfcfc #000000 #000000;
#X obj 1395 655 noteout 1;
#X msg 1397 547 65;
#X msg 1448 546 92;
#X msg 1439 606 100;
#X obj 1448 578 loadbang;
#X obj 1402 528 bng 16 250 50 0 empty empty empty 0 -8 0 10 #fcfcfc #000000 #000000;
#X obj 1405 665 noteout 1;
#X msg 1407 557 65;
#X msg 1458 556 92;
#X msg 1449 616 100;
#X obj 1458 588 loadbang;
#X obj 1412 538 bng 16 250 50 0 empty empty empty 0 -8 0 10 #fcfcfc #000000 #000000;
#X obj 1415 675 noteout 1;
#X msg 1417 567 65;
#X msg 1468 566 92;
#X msg 1459 626 100;
#X obj 1468 598 loadbang;
#X obj 1555 640 bng 16 250 50 0 empty empty empty 0 -8 0 10 #fcfcfc #000000 #000000;
#X obj 1558 777 noteout 1;
#X msg 1560 669 65;
#X msg 1611 668 92;
#X msg 1602 728 100;
#X obj 1611 700 loadbang;
#X obj 10 8 inlet;
#X obj 10 32 s num;
#X obj 111 40 r num;
#X obj 405 23 r num;
#N canvas 820 110 821 689 oscs 0;
#X obj 78 76 mtof;
#X obj 105 152 * 1.015;
#X obj 183 153 * 0.503;
#X obj 266 153 * 1.496;
#X obj 69 34 inlet;
#X obj 281 372 outlet~;
#X obj 45 252 osc~;
#X obj 115 251 osc~;
#X obj 174 264 osc~;
#X obj 271 265 osc~;
#X obj 340 261 osc~;
#X obj 334 146 * 2.01;
#X connect 0 0 2 0;
#X connect 0 0 1 0;
#X connect 0 0 3 0;
#X connect 0 0 6 0;
#X connect 0 0 11 0;
#X connect 1 0 7 0;
#X connect 2 0 8 0;
#X connect 3 0 9 0;
#X connect 4 0 0 0;
#X connect 6 0 5 0;
#X connect 7 0 5 0;
#X connect 8 0 5 0;
#X connect 9 0 5 0;
#X connect 10 0 5 0;
#X connect 11 0 10 0;
#X restore 110 242 pd oscs;
#X obj 107 314 throw~ \$0-output;
#X obj 105 112 tgl 19 0 empty empty empty 0 -10 0 12 #fcfcfc #000000 #000000 0 1;
#X obj 107 279 *~ 0.25;
#X floatatom 114 213 5 0 0 0 - - - 0;
#X obj 80 153 sel 0;
#X obj 111 68 route gridToggle1;
#X obj 431 309 throw~ \$0-output;
#X obj 390 105 tgl 19 0 empty empty empty 0 -10 0 12 #fcfcfc #000000 #000000 0 1;
#X obj 429 276 *~ 0.25;
#X floatatom 426 205 5 0 0 0 - - - 0;
#X obj 364 147 sel 0;
#X obj 395 62 route gridToggle2;
#N canvas 777 227 556 300 notes2 0;
#X obj 163 14 inlet;
#X floatatom 128 187 5 0 0 0 - - - 0;
#X floatatom 127 248 5 0 0 0 - - - 0;
#X obj 134 110 bng 19 250 50 0 empty empty empty 0 -10 0 12 #fcfcfc #000000 #000000;
#X obj 133 81 metro;
#X obj 188 56 r metro;
#X obj 132 136 i 0;
#X obj 163 162 + 1;
#X obj 129 273 outlet;
#X obj 216 96 inlet;
#X obj 227 163 % 8;
#X obj 323 52 bang;
#X obj 184 122 * 0;
#X obj 314 203 table notes2;
#X obj 126 217 tabread notes2;
#X msg 278 90 \; notes2 0 64 66 71 73 74 66 64 73;
#X connect 0 0 4 0;
#X connect 0 0 11 0;
#X connect 1 0 14 0;
#X connect 2 0 8 0;
#X connect 3 0 6 0;
#X connect 4 0 3 0;
#X connect 5 0 4 1;
#X connect 6 0 7 0;
#X connect 6 0 1 0;
#X connect 7 0 10 0;
#X connect 9 0 12 0;
#X connect 10 0 6 1;
#X connect 11 0 15 0;
#X connect 12 0 6 1;
#X connect 14 0 2 0;
#X restore 420 153 pd notes2;
#N canvas 582 111 617 300 notes1 0;
#X obj 208 9 inlet;
#X floatatom 128 187 5 0 0 0 - - - 0;
#X floatatom 127 248 5 0 0 0 - - - 0;
#X obj 134 110 bng 19 250 50 0 empty empty empty 0 -10 0 12 #fcfcfc #000000 #000000;
#X obj 133 81 metro;
#X obj 188 56 r metro;
#X obj 132 136 i 0;
#X obj 163 162 + 1;
#X obj 129 273 outlet;
#X obj 210 93 inlet;
#X obj 227 163 % 8;
#X obj 356 69 bang;
#X obj 183 119 * 0;
#X msg 311 107 \; notes1 0 55 58 60 67 62 68 70 73;
#X obj 349 168 table notes1;
#X obj 126 217 tabread notes1;
#X connect 0 0 4 0;
#X connect 0 0 11 0;
#X connect 1 0 15 0;
#X connect 2 0 8 0;
#X connect 3 0 6 0;
#X connect 4 0 3 0;
#X connect 5 0 4 1;
#X connect 6 0 7 0;
#X connect 6 0 1 0;
#X connect 7 0 10 0;
#X connect 9 0 12 0;
#X connect 10 0 6 1;
#X connect 11 0 13 0;
#X connect 12 0 6 1;
#X connect 15 0 2 0;
#X restore 136 159 pd notes1;
#X obj 685 37 r num;
#X obj 977 23 r num;
#X obj 122 401 r num;
#X obj 725 322 throw~ \$0-output;
#X obj 684 118 tgl 19 0 empty empty empty 0 -10 0 12 #fcfcfc #000000 #000000 0 1;
#X obj 723 289 *~ 0.25;
#X floatatom 720 218 5 0 0 0 - - - 0;
#X obj 658 160 sel 0;
#X obj 967 107 tgl 19 0 empty empty empty 0 -10 0 12 #fcfcfc #000000 #000000 0 1;
#X obj 941 149 sel 0;
#X obj 113 482 tgl 19 0 empty empty empty 0 -10 0 12 #fcfcfc #000000 #000000 0 1;
#X obj 87 524 sel 0;
#X obj 689 75 route gridToggle3;
#X obj 972 64 route gridToggle4;
#X obj 118 439 route gridToggle5;
#X obj 436 412 r num;
#X obj 726 410 r num;
#X obj 999 410 r num;
#X obj 431 483 tgl 19 0 empty empty empty 0 -10 0 12 #fcfcfc #000000 #000000 0 1;
#X obj 405 525 sel 0;
#X obj 711 492 tgl 19 0 empty empty empty 0 -10 0 12 #fcfcfc #000000 #000000 0 1;
#X obj 685 534 sel 0;
#X obj 998 491 tgl 19 0 empty empty empty 0 -10 0 12 #fcfcfc #000000 #000000 0 1;
#X obj 972 533 sel 0;
#X obj 436 440 route gridToggle6;
#X obj 716 449 route gridToggle7;
#X obj 1003 448 route gridToggle8;
#N canvas 78 78 852 300 notes3 0;
#X obj 183 11 inlet;
#X floatatom 128 187 5 0 0 0 - - - 0;
#X floatatom 127 248 5 0 0 0 - - - 0;
#X obj 134 110 bng 19 250 50 0 empty empty empty 0 -10 0 12 #fcfcfc #000000 #000000;
#X obj 133 81 metro;
#X obj 188 56 r metro;
#X obj 132 136 i 0;
#X obj 163 162 + 1;
#X obj 129 273 outlet;
#X obj 265 84 inlet;
#X obj 227 163 % 8;
#X obj 369 62 bang;
#X obj 228 117 * 0;
#X obj 314 203 table notes3;
#X obj 126 217 tabread notes3;
#X msg 347 98 \; notes3 0 48 50 55 60 60 55 50 48;
#X connect 0 0 4 0;
#X connect 0 0 11 0;
#X connect 1 0 14 0;
#X connect 2 0 8 0;
#X connect 3 0 6 0;
#X connect 4 0 3 0;
#X connect 5 0 4 1;
#X connect 6 0 7 0;
#X connect 6 0 1 0;
#X connect 7 0 10 0;
#X connect 9 0 12 0;
#X connect 10 0 6 1;
#X connect 11 0 15 0;
#X connect 12 0 6 1;
#X connect 14 0 2 0;
#X restore 714 166 pd notes3;
#X obj 1024 326 throw~ \$0-output;
#X obj 1022 293 *~ 0.25;
#X floatatom 1019 222 5 0 0 0 - - - 0;
#X obj 151 698 throw~ \$0-output;
#X floatatom 146 594 5 0 0 0 - - - 0;
#X obj 472 704 throw~ \$0-output;
#X floatatom 471 595 5 0 0 0 - - - 0;
#N canvas 4 52 1920 989 oscs 0;
#X obj 78 76 mtof;
#X obj 105 152 * 1.015;
#X obj 183 153 * 0.503;
#X obj 266 153 * 1.496;
#X obj 69 34 inlet;
#X obj 281 372 outlet~;
#X obj 45 252 osc~;
#X obj 115 251 osc~;
#X obj 174 264 osc~;
#X obj 271 265 osc~;
#X obj 340 261 osc~;
#X obj 334 146 * 2.01;
#X connect 0 0 2 0;
#X connect 0 0 1 0;
#X connect 0 0 3 0;
#X connect 0 0 6 0;
#X connect 0 0 11 0;
#X connect 1 0 7 0;
#X connect 2 0 8 0;
#X connect 3 0 9 0;
#X connect 4 0 0 0;
#X connect 6 0 5 0;
#X connect 7 0 5 0;
#X connect 8 0 5 0;
#X connect 9 0 5 0;
#X connect 10 0 5 0;
#X connect 11 0 10 0;
#X restore 758 632 pd oscs;
#X obj 762 705 throw~ \$0-output;
#X obj 760 672 *~ 0.25;
#X floatatom 757 601 5 0 0 0 - - - 0;
#N canvas 4 52 1920 989 oscs 0;
#X obj 78 76 mtof;
#X obj 105 152 * 1.015;
#X obj 183 153 * 0.503;
#X obj 266 153 * 1.496;
#X obj 69 34 inlet;
#X obj 281 372 outlet~;
#X obj 45 252 osc~;
#X obj 115 251 osc~;
#X obj 174 264 osc~;
#X obj 271 265 osc~;
#X obj 340 261 osc~;
#X obj 334 146 * 2.01;
#X connect 0 0 2 0;
#X connect 0 0 1 0;
#X connect 0 0 3 0;
#X connect 0 0 6 0;
#X connect 0 0 11 0;
#X connect 1 0 7 0;
#X connect 2 0 8 0;
#X connect 3 0 9 0;
#X connect 4 0 0 0;
#X connect 6 0 5 0;
#X connect 7 0 5 0;
#X connect 8 0 5 0;
#X connect 9 0 5 0;
#X connect 10 0 5 0;
#X connect 11 0 10 0;
#X restore 1043 633 pd oscs;
#X obj 1047 706 throw~ \$0-output;
#X obj 1045 673 *~ 0.25;
#X floatatom 1042 602 5 0 0 0 - - - 0;
#N canvas 78 78 944 300 notes4 0;
#X obj 183 11 inlet;
#X floatatom 128 187 5 0 0 0 - - - 0;
#X floatatom 127 248 5 0 0 0 - - - 0;
#X obj 134 110 bng 19 250 50 0 empty empty empty 0 -10 0 12 #fcfcfc #000000 #000000;
#X obj 133 81 metro;
#X obj 188 56 r metro;
#X obj 132 136 i 0;
#X obj 163 162 + 1;
#X obj 129 273 outlet;
#X obj 265 84 inlet;
#X obj 227 163 % 8;
#X obj 369 62 bang;
#X obj 228 117 * 0;
#X obj 314 203 table notes4;
#X obj 126 217 tabread notes4;
#X msg 358 98 \; notes4 0 60 55 60 0 60 55 60 0;
#X connect 0 0 4 0;
#X connect 0 0 11 0;
#X connect 1 0 14 0;
#X connect 2 0 8 0;
#X connect 3 0 6 0;
#X connect 4 0 3 0;
#X connect 5 0 4 1;
#X connect 6 0 7 0;
#X connect 6 0 1 0;
#X connect 7 0 10 0;
#X connect 9 0 12 0;
#X connect 10 0 6 1;
#X connect 11 0 15 0;
#X connect 12 0 6 1;
#X connect 14 0 2 0;
#X restore 1013 170 pd notes4;
#N canvas 78 78 858 300 notes5 0;
#X obj 183 11 inlet;
#X floatatom 128 187 5 0 0 0 - - - 0;
#X floatatom 127 248 5 0 0 0 - - - 0;
#X obj 134 110 bng 19 250 50 0 empty empty empty 0 -10 0 12 #fcfcfc #000000 #000000;
#X obj 133 81 metro;
#X obj 188 56 r metro;
#X obj 132 136 i 0;
#X obj 163 162 + 1;
#X obj 129 273 outlet;
#X obj 265 84 inlet;
#X obj 369 62 bang;
#X obj 228 117 * 0;
#X obj 126 217 tabread notes5;
#X obj 314 203 table notes5;
#X msg 330 97 \; notes5 0 53 36 43 72 44 60 36 72 58 55 46 41 60 55;
#X obj 227 163 % 14;
#X connect 0 0 4 0;
#X connect 0 0 10 0;
#X connect 1 0 12 0;
#X connect 2 0 8 0;
#X connect 3 0 6 0;
#X connect 4 0 3 0;
#X connect 5 0 4 1;
#X connect 6 0 7 0;
#X connect 6 0 1 0;
#X connect 7 0 15 0;
#X connect 9 0 11 0;
#X connect 10 0 14 0;
#X connect 11 0 6 1;
#X connect 12 0 2 0;
#X connect 15 0 6 1;
#X restore 140 542 pd notes5;
#N canvas 78 78 923 300 notes6 0;
#X obj 183 11 inlet;
#X floatatom 128 187 5 0 0 0 - - - 0;
#X floatatom 127 248 5 0 0 0 - - - 0;
#X obj 134 110 bng 19 250 50 0 empty empty empty 0 -10 0 12 #fcfcfc #000000 #000000;
#X obj 133 81 metro;
#X obj 188 56 r metro;
#X obj 132 136 i 0;
#X obj 163 162 + 1;
#X obj 129 273 outlet;
#X obj 265 84 inlet;
#X obj 369 62 bang;
#X obj 228 117 * 0;
#X obj 314 203 table notes6;
#X obj 126 217 tabread notes6;
#X obj 227 163 % 8;
#X msg 345 107 \; notes6 0 60 55 0 55 60 60 55 0 55 60;
#X connect 0 0 4 0;
#X connect 0 0 10 0;
#X connect 1 0 13 0;
#X connect 2 0 8 0;
#X connect 3 0 6 0;
#X connect 4 0 3 0;
#X connect 5 0 4 1;
#X connect 6 0 7 0;
#X connect 6 0 1 0;
#X connect 7 0 14 0;
#X connect 9 0 11 0;
#X connect 10 0 15 0;
#X connect 11 0 6 1;
#X connect 13 0 2 0;
#X connect 14 0 6 1;
#X restore 465 543 pd notes6;
#N canvas 78 78 450 300 notes7 0;
#X obj 183 11 inlet;
#X floatatom 128 187 5 0 0 0 - - - 0;
#X floatatom 127 248 5 0 0 0 - - - 0;
#X obj 134 110 bng 19 250 50 0 empty empty empty 0 -10 0 12 #fcfcfc #000000 #000000;
#X obj 133 81 metro;
#X obj 188 56 r metro;
#X obj 132 136 i 0;
#X obj 163 162 + 1;
#X obj 129 273 outlet;
#X obj 265 84 inlet;
#X obj 227 163 % 8;
#X obj 369 62 bang;
#X obj 228 117 * 0;
#X msg 324 100 \; notes7 0 55 58 60 67 62 68 70 73;
#X obj 314 203 table notes7;
#X obj 126 217 tabread notes7;
#X connect 0 0 4 0;
#X connect 0 0 11 0;
#X connect 1 0 15 0;
#X connect 2 0 8 0;
#X connect 3 0 6 0;
#X connect 4 0 3 0;
#X connect 5 0 4 1;
#X connect 6 0 7 0;
#X connect 6 0 1 0;
#X connect 7 0 10 0;
#X connect 9 0 12 0;
#X connect 10 0 6 1;
#X connect 11 0 13 0;
#X connect 12 0 6 1;
#X connect 15 0 2 0;
#X restore 751 549 pd notes7;
#N canvas 78 78 450 300 notes8 0;
#X obj 183 11 inlet;
#X floatatom 128 187 5 0 0 0 - - - 0;
#X floatatom 127 248 5 0 0 0 - - - 0;
#X obj 134 110 bng 19 250 50 0 empty empty empty 0 -10 0 12 #fcfcfc #000000 #000000;
#X obj 133 81 metro;
#X obj 188 56 r metro;
#X obj 132 136 i 0;
#X obj 163 162 + 1;
#X obj 129 273 outlet;
#X obj 265 84 inlet;
#X obj 227 163 % 8;
#X obj 369 62 bang;
#X obj 228 117 * 0;
#X msg 324 100 \; notes8 0 55 58 60 67 62 68 70 73;
#X obj 314 203 table notes8;
#X obj 126 217 tabread notes8;
#X connect 0 0 4 0;
#X connect 0 0 11 0;
#X connect 1 0 15 0;
#X connect 2 0 8 0;
#X connect 3 0 6 0;
#X connect 4 0 3 0;
#X connect 5 0 4 1;
#X connect 6 0 7 0;
#X connect 6 0 1 0;
#X connect 7 0 10 0;
#X connect 9 0 12 0;
#X connect 10 0 6 1;
#X connect 11 0 13 0;
#X connect 12 0 6 1;
#X connect 15 0 2 0;
#X restore 1036 550 pd notes8;
#X obj 16 106 loadbang;
#X obj 316 106 loadbang;
#X obj 606 121 loadbang;
#X obj 893 105 loadbang;
#X obj 39 473 loadbang;
#X obj 358 481 loadbang;
#X obj 642 493 loadbang;
#X obj 931 491 loadbang;
#X msg 84 186 0;
#X msg 368 180 0;
#X msg 961 197 0;
#X msg 662 193 0;
#X msg 88 569 0;
#X msg 414 570 0;
#X msg 699 576 0;
#X msg 984 577 0;
#X msg 178 194 0.25;
#X msg 505 212 0.25;
#X msg 787 215 0.25;
#X msg 1126 237 0.25;
#X msg 1122 600 0.25;
#X msg 834 590 0.25;
#N canvas 820 110 821 689 oscs 0;
#X obj 78 76 mtof;
#X obj 105 152 * 1.015;
#X obj 183 153 * 0.503;
#X obj 266 153 * 1.496;
#X obj 69 34 inlet;
#X obj 281 372 outlet~;
#X obj 45 252 osc~;
#X obj 115 251 osc~;
#X obj 174 264 osc~;
#X obj 271 265 osc~;
#X obj 340 261 osc~;
#X obj 334 146 * 2.01;
#X connect 0 0 2 0;
#X connect 0 0 1 0;
#X connect 0 0 3 0;
#X connect 0 0 6 0;
#X connect 0 0 11 0;
#X connect 1 0 7 0;
#X connect 2 0 8 0;
#X connect 3 0 9 0;
#X connect 4 0 0 0;
#X connect 6 0 5 0;
#X connect 7 0 5 0;
#X connect 8 0 5 0;
#X connect 9 0 5 0;
#X connect 10 0 5 0;
#X connect 11 0 10 0;
#X restore 432 245 pd oscs;
#N canvas 104 104 793 459 acid 0;
#X obj 94 25 inlet;
#X obj 96 70 t f b b, f 59;
#X obj 99 114 mtof;
#X obj 95 158 phasor~;
#X obj 282 310 *~;
#N canvas 156 156 450 300 env 0;
#X obj 226 29 inlet;
#X obj 57 20 inlet;
#X obj 57 44 bng 19 250 50 0 empty empty empty 0 -10 0 12 #fcfcfc #000000 #000000;
#X obj 133 81 del 50;
#X obj 131 113 pack 0 500;
#X floatatom 229 65 5 0 0 0 - - - 0;
#X msg 62 95 1 3;
#X obj 76 147 line~;
#X obj 71 180 *~;
#X obj 66 216 *~;
#X obj 63 247 outlet~;
#X connect 0 0 5 0;
#X connect 1 0 2 0;
#X connect 2 0 3 0;
#X connect 2 0 6 0;
#X connect 3 0 4 0;
#X connect 4 0 7 0;
#X connect 5 0 4 1;
#X connect 6 0 7 0;
#X connect 7 0 8 0;
#X connect 7 0 8 1;
#X connect 8 0 9 0;
#X connect 8 0 9 1;
#X connect 9 0 10 0;
#X restore 297 134 pd env;
#N canvas 156 156 450 300 env 0;
#X obj 226 29 inlet;
#X obj 57 20 inlet;
#X obj 57 44 bng 19 250 50 0 empty empty empty 0 -10 0 12 #fcfcfc #000000 #000000;
#X obj 133 81 del 50;
#X obj 131 113 pack 0 500;
#X floatatom 229 65 5 0 0 0 - - - 0;
#X msg 62 95 1 3;
#X obj 76 147 line~;
#X obj 71 180 *~;
#X obj 66 216 *~;
#X obj 63 247 outlet~;
#X connect 0 0 5 0;
#X connect 1 0 2 0;
#X connect 2 0 3 0;
#X connect 2 0 6 0;
#X connect 3 0 4 0;
#X connect 4 0 7 0;
#X connect 5 0 4 1;
#X connect 6 0 7 0;
#X connect 7 0 8 0;
#X connect 7 0 8 1;
#X connect 8 0 9 0;
#X connect 8 0 9 1;
#X connect 9 0 10 0;
#X restore 513 123 pd env;
#X floatatom 570 72 5 0 0 0 - - - 0;
#X obj 307 177 *~ 5000;
#X floatatom 379 149 5 0 0 0 - - - 0;
#X floatatom 351 104 5 0 0 0 - - - 0;
#X obj 188 130 * 8;
#X obj 280 421 outlet~;
#X obj 287 372 *~ 50;
#X obj 258 255 vcf~ 25;
#X obj 465 5 loadbang;
#X msg 409 49 75;
#X msg 558 36 500;
#X connect 0 0 1 0;
#X connect 1 0 2 0;
#X connect 1 1 5 0;
#X connect 1 2 6 0;
#X connect 2 0 3 0;
#X connect 2 0 11 0;
#X connect 3 0 14 0;
#X connect 4 0 13 0;
#X connect 5 0 8 0;
#X connect 6 0 4 1;
#X connect 7 0 6 1;
#X connect 8 0 14 1;
#X connect 9 0 8 1;
#X connect 10 0 5 1;
#X connect 11 0 9 0;
#X connect 13 0 12 0;
#X connect 14 1 4 0;
#X connect 15 0 16 0;
#X connect 15 0 17 0;
#X connect 16 0 10 0;
#X connect 17 0 7 0;
#X restore 725 246 pd acid;
#N canvas 104 104 793 459 acid2 0;
#X obj 94 25 inlet;
#X obj 96 70 t f b b, f 59;
#X obj 99 114 mtof;
#X obj 95 158 phasor~;
#X obj 282 310 *~;
#N canvas 156 156 450 300 env 0;
#X obj 226 29 inlet;
#X obj 57 20 inlet;
#X obj 57 44 bng 19 250 50 0 empty empty empty 0 -10 0 12 #fcfcfc #000000 #000000;
#X obj 133 81 del 50;
#X obj 131 113 pack 0 500;
#X floatatom 229 65 5 0 0 0 - - - 0;
#X msg 62 95 1 3;
#X obj 76 147 line~;
#X obj 71 180 *~;
#X obj 66 216 *~;
#X obj 63 247 outlet~;
#X connect 0 0 5 0;
#X connect 1 0 2 0;
#X connect 2 0 3 0;
#X connect 2 0 6 0;
#X connect 3 0 4 0;
#X connect 4 0 7 0;
#X connect 5 0 4 1;
#X connect 6 0 7 0;
#X connect 7 0 8 0;
#X connect 7 0 8 1;
#X connect 8 0 9 0;
#X connect 8 0 9 1;
#X connect 9 0 10 0;
#X restore 297 134 pd env;
#N canvas 156 156 450 300 env 0;
#X obj 226 29 inlet;
#X obj 57 20 inlet;
#X obj 57 44 bng 19 250 50 0 empty empty empty 0 -10 0 12 #fcfcfc #000000 #000000;
#X obj 133 81 del 50;
#X obj 131 113 pack 0 500;
#X floatatom 229 65 5 0 0 0 - - - 0;
#X msg 62 95 1 3;
#X obj 76 147 line~;
#X obj 71 180 *~;
#X obj 66 216 *~;
#X obj 63 247 outlet~;
#X connect 0 0 5 0;
#X connect 1 0 2 0;
#X connect 2 0 3 0;
#X connect 2 0 6 0;
#X connect 3 0 4 0;
#X connect 4 0 7 0;
#X connect 5 0 4 1;
#X connect 6 0 7 0;
#X connect 7 0 8 0;
#X connect 7 0 8 1;
#X connect 8 0 9 0;
#X connect 8 0 9 1;
#X connect 9 0 10 0;
#X restore 513 123 pd env;
#X floatatom 570 72 5 0 0 0 - - - 0;
#X obj 307 177 *~ 5000;
#X floatatom 379 149 5 0 0 0 - - - 0;
#X floatatom 351 104 5 0 0 0 - - - 0;
#X obj 188 130 * 8;
#X obj 280 421 outlet~;
#X obj 258 255 vcf~ 10;
#X obj 287 372 *~ 50;
#X obj 452 12 loadbang;
#X msg 375 49 50;
#X msg 546 37 100;
#X connect 0 0 1 0;
#X connect 1 0 2 0;
#X connect 1 1 5 0;
#X connect 1 2 6 0;
#X connect 2 0 3 0;
#X connect 2 0 11 0;
#X connect 3 0 13 0;
#X connect 4 0 14 0;
#X connect 5 0 8 0;
#X connect 6 0 4 1;
#X connect 7 0 6 1;
#X connect 8 0 13 1;
#X connect 9 0 8 1;
#X connect 10 0 5 1;
#X connect 11 0 9 0;
#X connect 13 1 4 0;
#X connect 14 0 12 0;
#X connect 15 0 16 0;
#X connect 15 0 17 0;
#X connect 16 0 10 0;
#X connect 17 0 7 0;
#X restore 1021 258 pd acid2;
#N canvas 500 237 769 300 guitar 0;
#X obj 162 14 inlet;
#X obj 283 239 outlet~;
#X obj 169 42 t b f;
#X obj 262 60 mtof;
#X obj 266 87 expr 1000 / $f1;
#X obj 271 124 delread4~ del;
#X obj 281 159 *~ 0.99;
#X obj 398 124 inlet;
#X obj 283 189 lop~ 5000;
#X obj 172 81 bng 19 250 50 0 empty empty empty 0 -10 0 12 #fcfcfc #000000 #000000;
#X obj 100 81 noise~;
#X obj 112 155 *~;
#N canvas 1046 328 450 300 env 0;
#X obj 57 22 inlet;
#X obj 63 247 outlet~;
#X obj 63 57 t b b;
#X floatatom 73 162 5 0 0 0 - - - 0;
#X obj 60 104 del 30;
#X msg 199 156 1;
#X obj 85 208 tgl 19 0 empty empty empty 0 -10 0 12 #fcfcfc #000000 #000000 0 1;
#X connect 0 0 2 0;
#X connect 2 0 4 0;
#X connect 2 1 5 0;
#X connect 3 0 6 0;
#X connect 4 0 3 0;
#X connect 5 0 6 0;
#X connect 6 0 1 0;
#X restore 175 123 pd env;
#X obj 109 238 delwrite~ del 500;
#X connect 0 0 2 0;
#X connect 2 0 9 0;
#X connect 2 1 3 0;
#X connect 3 0 4 0;
#X connect 4 0 5 0;
#X connect 5 0 6 0;
#X connect 6 0 8 0;
#X connect 7 0 6 1;
#X connect 8 0 1 0;
#X connect 8 0 13 0;
#X connect 9 0 12 0;
#X connect 10 0 11 0;
#X connect 11 0 13 0;
#X connect 12 0 11 1;
#X restore 140 629 pd guitar;
#X floatatom 256 670 12 0 0 0 - - - 0;
#X obj 149 666 *~ 0.75;
#X msg 239 589 0.75;
#N canvas 500 237 769 300 guitar2 0;
#X obj 162 14 inlet;
#X obj 283 239 outlet~;
#X obj 169 42 t b f;
#X obj 262 60 mtof;
#X obj 266 87 expr 1000 / $f1;
#X obj 281 159 *~ 0.99;
#X obj 398 124 inlet;
#X obj 283 189 lop~ 5000;
#X obj 172 81 bng 19 250 50 0 empty empty empty 0 -10 0 12 #fcfcfc #000000 #000000;
#X obj 100 81 noise~;
#X obj 112 155 *~;
#N canvas 1046 328 450 300 env 0;
#X obj 57 22 inlet;
#X obj 63 247 outlet~;
#X obj 63 57 t b b;
#X floatatom 73 162 5 0 0 0 - - - 0;
#X obj 60 104 del 30;
#X msg 199 156 1;
#X obj 85 208 tgl 19 0 empty empty empty 0 -10 0 12 #fcfcfc #000000 #000000 0 1;
#X connect 0 0 2 0;
#X connect 2 0 4 0;
#X connect 2 1 5 0;
#X connect 3 0 6 0;
#X connect 4 0 3 0;
#X connect 5 0 6 0;
#X connect 6 0 1 0;
#X restore 175 123 pd env;
#X obj 109 238 delwrite~ del2 500;
#X obj 271 124 delread4~ del2;
#X connect 0 0 2 0;
#X connect 2 0 8 0;
#X connect 2 1 3 0;
#X connect 3 0 4 0;
#X connect 4 0 13 0;
#X connect 5 0 7 0;
#X connect 6 0 5 1;
#X connect 7 0 1 0;
#X connect 7 0 12 0;
#X connect 8 0 11 0;
#X connect 9 0 10 0;
#X connect 10 0 12 0;
#X connect 11 0 10 1;
#X connect 13 0 5 0;
#X restore 465 634 pd guitar2;
#X obj 474 666 *~ 0.75;
#X msg 553 597 0.75;
#X floatatom 583 673 10 0 0 0 - - - 0;
#X obj 261 618 loadbang;
#X msg 262 642 0.995;
#X obj 586 620 loadbang;
#X msg 587 643 0.995;
#X connect 0 0 2 0;
#X connect 0 0 3 0;
#X connect 2 0 1 0;
#X connect 3 0 1 0;
#X connect 4 0 1 1;
#X connect 5 0 4 0;
#X connect 6 0 8 0;
#X connect 6 0 9 0;
#X connect 8 0 7 0;
#X connect 9 0 7 0;
#X connect 10 0 7 1;
#X connect 11 0 10 0;
#X connect 12 0 14 0;
#X connect 12 0 15 0;
#X connect 14 0 13 0;
#X connect 15 0 13 0;
#X connect 16 0 13 1;
#X connect 17 0 16 0;
#X connect 18 0 20 0;
#X connect 18 0 21 0;
#X connect 20 0 19 0;
#X connect 21 0 19 0;
#X connect 22 0 19 1;
#X connect 23 0 22 0;
#X connect 24 0 25 0;
#X connect 26 0 34 0;
#X connect 27 0 40 0;
#X connect 28 0 31 0;
#X connect 30 0 42 0;
#X connect 30 0 33 0;
#X connect 31 0 29 0;
#X connect 32 0 28 0;
#X connect 33 0 99 0;
#X connect 33 1 107 0;
#X connect 34 0 30 0;
#X connect 36 0 41 0;
#X connect 36 0 39 0;
#X connect 37 0 35 0;
#X connect 38 0 113 0;
#X connect 39 0 100 0;
#X connect 39 1 108 0;
#X connect 40 0 36 0;
#X connect 41 0 38 0;
#X connect 42 0 32 0;
#X connect 43 0 55 0;
#X connect 44 0 56 0;
#X connect 45 0 57 0;
#X connect 47 0 70 0;
#X connect 47 0 50 0;
#X connect 48 0 46 0;
#X connect 49 0 114 0;
#X connect 50 0 102 0;
#X connect 50 1 109 0;
#X connect 51 0 52 0;
#X connect 51 0 86 0;
#X connect 52 0 101 0;
#X connect 52 1 110 0;
#X connect 53 0 54 0;
#X connect 53 0 87 0;
#X connect 54 0 103 0;
#X connect 54 1 119 0;
#X connect 55 0 47 0;
#X connect 56 0 51 0;
#X connect 57 0 53 0;
#X connect 58 0 67 0;
#X connect 59 0 68 0;
#X connect 60 0 69 0;
#X connect 61 0 62 0;
#X connect 61 0 88 0;
#X connect 62 0 104 0;
#X connect 62 1 122 0;
#X connect 63 0 64 0;
#X connect 63 0 89 0;
#X connect 64 0 105 0;
#X connect 64 1 112 0;
#X connect 65 0 66 0;
#X connect 65 0 90 0;
#X connect 66 0 106 0;
#X connect 66 1 111 0;
#X connect 67 0 61 0;
#X connect 68 0 63 0;
#X connect 69 0 65 0;
#X connect 70 0 49 0;
#X connect 72 0 71 0;
#X connect 73 0 115 0;
#X connect 75 0 116 0;
#X connect 77 0 120 0;
#X connect 78 0 80 0;
#X connect 80 0 79 0;
#X connect 81 0 78 0;
#X connect 82 0 84 0;
#X connect 84 0 83 0;
#X connect 85 0 82 0;
#X connect 86 0 73 0;
#X connect 87 0 75 0;
#X connect 88 0 77 0;
#X connect 89 0 81 0;
#X connect 90 0 85 0;
#X connect 91 0 99 0;
#X connect 92 0 100 0;
#X connect 93 0 102 0;
#X connect 94 0 101 0;
#X connect 95 0 103 0;
#X connect 96 0 104 0;
#X connect 97 0 105 0;
#X connect 98 0 106 0;
#X connect 99 0 42 1;
#X connect 99 0 32 0;
#X connect 99 0 31 1;
#X connect 100 0 38 0;
#X connect 100 0 41 1;
#X connect 100 0 37 1;
#X connect 101 0 86 1;
#X connect 101 0 73 0;
#X connect 101 0 72 1;
#X connect 102 0 49 0;
#X connect 102 0 70 1;
#X connect 102 0 48 1;
#X connect 103 0 75 0;
#X connect 103 0 87 1;
#X connect 103 0 118 1;
#X connect 104 0 77 0;
#X connect 104 0 88 1;
#X connect 104 0 121 1;
#X connect 105 0 81 0;
#X connect 105 0 89 1;
#X connect 105 0 80 1;
#X connect 106 0 85 0;
#X connect 106 0 90 1;
#X connect 106 0 84 1;
#X connect 107 0 31 1;
#X connect 108 0 37 1;
#X connect 109 0 48 1;
#X connect 110 0 72 1;
#X connect 111 0 84 1;
#X connect 112 0 80 1;
#X connect 113 0 37 0;
#X connect 114 0 48 0;
#X connect 115 0 72 0;
#X connect 116 0 118 0;
#X connect 117 0 116 1;
#X connect 118 0 74 0;
#X connect 119 0 118 1;
#X connect 120 0 121 0;
#X connect 121 0 76 0;
#X connect 122 0 121 1;
#X connect 123 0 120 1;
#X connect 124 0 125 0;
#X connect 125 0 117 0;
#X connect 126 0 127 0;
#X connect 127 0 123 0;
#X restore 769 400 pd toggle;
#X connect 0 0 3 0;
#X connect 1 0 2 0;
#X connect 2 0 0 0;
#X connect 3 0 28 0;
#X connect 3 0 32 0;
#X connect 4 0 79 0;
#X connect 5 0 6 0;
#X connect 6 0 7 0;
#X connect 7 0 9 0;
#X connect 8 0 76 0;
#X connect 9 0 8 0;
#X connect 10 0 9 1;
#X connect 11 0 10 0;
#X connect 12 0 11 0;
#X connect 13 0 12 0;
#X connect 14 0 13 0;
#X connect 15 0 12 0;
#X connect 16 0 21 0;
#X connect 17 0 16 0;
#X connect 18 0 15 0;
#X connect 19 0 18 0;
#X connect 20 0 19 0;
#X connect 21 0 15 1;
#X connect 22 0 23 0;
#X connect 23 0 112 0;
#X connect 24 0 5 0;
#X connect 29 0 84 0;
#X connect 29 0 86 0;
#X connect 30 0 88 0;
#X connect 31 0 22 0;
#X connect 33 0 89 0;
#X connect 34 0 87 0;
#X connect 35 0 36 0;
#X connect 36 0 37 0;
#X connect 37 0 38 0;
#X connect 38 0 53 0;
#X connect 39 0 114 0;
#X connect 40 0 45 0;
#X connect 42 0 44 0;
#X connect 44 0 39 0;
#X connect 45 0 35 0;
#X connect 45 1 52 0;
#X connect 46 0 53 1;
#X connect 47 0 46 0;
#X connect 48 0 47 0;
#X connect 49 0 46 1;
#X connect 50 0 49 0;
#X connect 51 0 50 0;
#X connect 52 0 48 0;
#X connect 53 0 41 0;
#X connect 54 0 38 1;
#X connect 55 0 110 0;
#X connect 56 0 58 0;
#X connect 57 0 65 0;
#X connect 58 0 59 0;
#X connect 59 0 60 0;
#X connect 60 0 61 0;
#X connect 61 0 62 0;
#X connect 62 0 63 0;
#X connect 63 0 64 0;
#X connect 64 0 99 0;
#X connect 65 0 55 0;
#X connect 66 0 77 0;
#X connect 69 0 81 0;
#X connect 71 0 67 0;
#X connect 73 0 67 0;
#X connect 77 0 25 0;
#X connect 77 0 25 1;
#X connect 78 0 80 0;
#X connect 79 0 78 1;
#X connect 80 0 102 0;
#X connect 81 0 66 1;
#X connect 82 0 70 0;
#X connect 82 0 85 0;
#X connect 83 0 82 0;
#X connect 84 0 94 0;
#X connect 85 0 72 0;
#X connect 86 0 93 0;
#X connect 87 0 4 0;
#X connect 88 0 92 0;
#X connect 89 0 95 0;
#X connect 90 0 91 0;
#X connect 91 0 106 0;
#X connect 92 0 141 0;
#X connect 93 0 85 1;
#X connect 94 0 83 0;
#X connect 95 0 97 0;
#X connect 96 0 100 0;
#X connect 97 0 96 1;
#X connect 98 0 96 0;
#X connect 101 0 78 0;
#X connect 103 0 68 0;
#X connect 103 0 66 0;
#X connect 105 0 108 0;
#X connect 106 0 105 0;
#X connect 109 0 110 1;
#X connect 110 0 56 0;
#X connect 111 0 112 1;
#X connect 112 0 24 0;
#X connect 113 0 114 1;
#X connect 114 0 40 0;
#X connect 115 0 117 0;
#X connect 117 0 118 0;
#X connect 118 0 123 0;
#X connect 118 0 133 0;
#X connect 119 0 120 1;
#X connect 119 0 121 1;
#X connect 120 0 125 0;
#X connect 121 0 130 0;
#X connect 122 0 124 0;
#X connect 123 0 122 0;
#X connect 124 0 120 0;
#X connect 125 0 128 0;
#X connect 125 0 126 0;
#X connect 126 0 127 0;
#X connect 127 0 116 0;
#X connect 128 0 126 0;
#X connect 129 0 116 0;
#X connect 130 0 129 0;
#X connect 131 0 132 0;
#X connect 132 0 121 0;
#X connect 133 0 131 0;
#X connect 134 0 137 0;
#X connect 138 0 144 0;
#X connect 141 0 77 1;
#X connect 141 0 142 0;
#X connect 142 0 140 0;
