#N canvas 645 96 450 300 12;
#X obj 49 27 netreceive;
#X obj 52 71 oscparse;
#X obj 55 112 route /slider1;
#X obj 54 156 *~ 1;
#X obj 48 216 dac~;
#X obj 238 23 netreceive;
#X obj 241 67 oscparse;
#X obj 248 246 dac~;
#X obj 244 108 route /button1;
#X obj 253 146 tgl 19 0 empty empty empty 0 -10 0 12 #fcfcfc #000000 #000000 0 1;
#X obj 245 215 *~ 0.1;
#X obj 251 184 osc~ 440;
#X connect 0 0 1 0;
#X connect 1 0 2 0;
#X connect 2 0 3 0;
#X connect 3 0 4 0;
#X connect 3 0 4 1;
#X connect 5 0 6 0;
#X connect 6 0 8 0;
#X connect 8 0 9 0;
#X connect 9 0 11 0;
#X connect 10 0 7 0;
#X connect 10 0 7 1;
#X connect 11 0 10 0;
